<svg width="241" height="152" viewBox="0 0 241 152" fill="none" xmlns="http://www.w3.org/2000/svg">
<mask id="path-1-outside-1" maskUnits="userSpaceOnUse" x="1" y="0" width="240" height="152" fill="black">
<rect fill="white" x="1" width="240" height="152"/>
<path fill-rule="evenodd" clip-rule="evenodd" d="M3 7C3 4.23858 5.23857 2 7.99999 2H234C236.761 2 239 4.23858 239 7V37C239 39.7614 236.748 41.9614 234.016 42.3627C217.601 44.7738 205 58.9153 205 76C205 93.0847 217.601 107.226 234.016 109.637C236.748 110.039 239 112.239 239 115V145C239 147.761 236.761 150 234 150H8C5.23858 150 3 147.761 3 145V115C3 112.239 5.25158 110.039 7.98369 109.637C24.3988 107.226 37 93.0847 37 76C37 58.9153 24.3988 44.7738 7.98369 42.3627C5.25158 41.9614 3 39.7614 3 37V7Z"/>
</mask>
<path d="M7.98369 42.3627L7.69304 44.3414L7.98369 42.3627ZM7.98369 109.637L7.69304 107.659L7.98369 109.637ZM234.016 109.637L234.307 107.659L234.016 109.637ZM234.016 42.3627L233.726 40.3839L234.016 42.3627ZM234 0H7.99999V4H234V0ZM241 37V7H237V37H241ZM207 76C207 59.922 218.859 46.6104 234.307 44.3414L233.726 40.3839C216.343 42.9371 203 57.9086 203 76H207ZM234.307 107.659C218.859 105.39 207 92.078 207 76H203C203 94.0914 216.343 109.063 233.726 111.616L234.307 107.659ZM241 145V115H237V145H241ZM8 152H234V148H8V152ZM1 115V145H5V115H1ZM35 76C35 92.078 23.1407 105.39 7.69304 107.659L8.27434 111.616C25.6569 109.063 39 94.0914 39 76H35ZM7.69304 44.3414C23.1407 46.6104 35 59.922 35 76H39C39 57.9086 25.6569 42.9371 8.27434 40.3839L7.69304 44.3414ZM1 7V37H5V7H1ZM8.27434 40.3839C6.34175 40.1 5 38.5954 5 37H1C1 40.9274 4.16142 43.8227 7.69304 44.3414L8.27434 40.3839ZM5 115C5 113.405 6.34175 111.9 8.27434 111.616L7.69304 107.659C4.16142 108.177 1 111.073 1 115H5ZM8 148C6.34315 148 5 146.657 5 145H1C1 148.866 4.13401 152 8 152V148ZM233.726 111.616C235.658 111.9 237 113.405 237 115H241C241 111.073 237.839 108.177 234.307 107.659L233.726 111.616ZM237 37C237 38.5954 235.658 40.1 233.726 40.3839L234.307 44.3414C237.839 43.8227 241 40.9274 241 37H237ZM7.99999 0C4.134 0 1 3.13401 1 7H5C5 5.34314 6.34314 4 7.99999 4V0ZM237 145C237 146.657 235.657 148 234 148V152C237.866 152 241 148.866 241 145H237ZM234 4C235.657 4 237 5.34315 237 7H241C241 3.13401 237.866 0 234 0V4Z" fill="white" mask="url(#path-1-outside-1)"/>
<mask id="path-3-outside-2" maskUnits="userSpaceOnUse" x="0" y="1" width="240" height="150" fill="black">
<rect fill="white" y="1" width="240" height="150"/>
<path fill-rule="evenodd" clip-rule="evenodd" d="M134.442 2H133.022L139.735 8.65844L119.894 10.4633L121.563 2H120.544L118.988 9.88792L112.492 2H111.196L118.639 11.0369L101.818 33.5738L101.7 2H100.7L100.823 34.6783L84.3212 38.6368L97.139 2H96.0796L83.5272 37.878L69.8965 2H68.8268L81.6675 35.7986L57.8765 2H56.306L75.6649 41.3619L38.7982 15.0842L54.4443 2H52.8855L38.4534 14.069L38.132 2H37.1317L37.4561 14.1867L18.3928 2H16.5362L37.2105 15.2166L11.6518 43.1106C12.0139 43.2056 12.3737 43.3064 12.731 43.413L37.0611 16.8599L28.514 53.5264C28.7883 53.8375 29.0569 54.1536 29.3198 54.4747L38.2986 15.9561L76.1168 42.912L36.5093 70.212C36.5717 70.5759 36.6283 70.9417 36.6791 71.3095L76.0831 44.1498L60.4459 94.6212L35.8264 84.8885C35.7389 85.2125 35.6467 85.5345 35.5499 85.8546L59.7473 95.4203L41.0568 109.395L31.7791 94.1125C31.5819 94.4253 31.3796 94.7346 31.1726 95.0404L40.0562 109.673L3.20302 111.786L4.36429 109.973C3.96452 109.989 3.56298 109.998 3.15979 110L3 110.249V114.586L23.9379 150H25.0996L4.22221 114.689L40.6298 145.915L35.0707 150H36.7595L40.7849 147.042L40.3969 150H41.4054L41.8694 146.463L74.7148 147.742L72.6396 150H73.9979L76.0261 147.794L76.4701 147.31L77.1938 147.271L144.272 143.625L144.33 143.622L144.723 143.6L145.509 143.558L145.264 144L144.937 144.59L141.939 150H143.083L146.329 144.141L175.193 146.972L176.909 150H178.059L177.501 149.017L178.572 150H180.05L177.176 147.361L189.826 150H194.722L176.519 146.202L193.264 129.809L195.164 150H196.169L194.223 129.325L234.843 136.551L196.286 150H199.322L233.91 137.935L222.136 150H223.533L236.029 137.196L236.39 136.826L236.812 136.394L237.305 136.251L239 135.762V134.721L237.243 135.228L235.724 109.844C235.386 109.812 235.05 109.775 234.715 109.733L236.26 135.528L236.097 135.695L236.044 135.749L195.216 128.486L232.598 109.398C232.078 109.299 231.562 109.188 231.051 109.066L194.961 127.494L212.602 97.4294C212.376 97.1517 212.155 96.8703 211.938 96.5854L194.185 126.84L194.673 84.889L207.675 89.2412C207.505 88.8392 207.342 88.4332 207.187 88.0234L196.608 84.4821L205.865 83.6546C205.79 83.328 205.72 82.9996 205.654 82.6695L194.673 83.651L194.18 48.3846L208.055 61.8934C208.202 61.5727 208.353 61.2547 208.509 60.9395L194.568 47.367L239 30.0214V28.9479L194.735 46.2285L218.158 2H217.026L193.637 46.1646L171.35 8.85303L198.57 4.99505L198.671 4.98082L198.757 4.92861L203.633 2H201.691L198.329 4.01918L171.177 7.86765L172.453 2H171.43L170.131 7.97094L143.303 8.46661L148.999 2H147.667L142.162 8.24833L141.948 8.49164L141.5 9L141.036 8.54012L140.789 8.2946L134.442 2ZM232.587 2L239 11.7787V9.95531L233.782 2H232.587ZM236.818 109.931L239 112.035V110.646L238.324 109.993C237.819 109.984 237.317 109.963 236.818 109.931ZM5.96196 42.1272L10.9581 30.7003L11.0721 30.4397L10.9063 30.2086L3 19.1828V20.8989L9.92795 30.5603L4.90328 42.0524C5.25765 42.0719 5.61057 42.0969 5.96196 42.1272ZM3 16.9291V18.7677L13.8675 2H12.6759L3 16.9291ZM11.9556 2L3 6.68428V5.55575L9.79802 2H11.9556ZM40.917 144.844L3.52084 112.77L40.4228 110.654L40.917 144.844ZM58.8875 97.3117L41.9201 109.998L49.0021 112.914L58.8875 97.3117ZM41.4261 110.876L48.6139 113.836L41.8754 141.954L41.4261 110.876ZM75.6028 146.776L75.6911 146.68L67.1116 124.442L42.7199 145.495L75.6028 146.776ZM68.0681 124.143L76.6166 146.301L76.7399 146.294L96.0827 125.744L68.0681 124.143ZM141.954 142.75L78.1873 146.216L97.3171 125.892L141.954 142.75ZM111.621 119.231L98.4782 125.262L142.286 141.806L111.621 119.231ZM147.26 142.461L146.317 142.512L157.361 102.599L192.568 128.532L147.237 142.502L147.26 142.461ZM144.099 87.655L156.22 101.55L113.715 117.363L144.099 87.655ZM142.711 87.6137L111.875 117.763L102.362 92.8001L142.711 87.6137ZM142.483 86.6348L103.246 91.6782L121.589 75.758L142.483 86.6348ZM144.101 86.35L123.877 75.822L156.915 78.1102L144.101 86.35ZM145.611 86.5681L158.294 78.4124L164.407 88.3797L145.611 86.5681ZM191.442 126.46L165.377 89.8631L157.748 101.643L191.442 126.46ZM142.407 9.48333L169.936 8.97471L162.376 51.2026L142.33 9.57084L142.407 9.48333ZM141.612 10.3855L160.935 50.5148L120.408 11.4206L140.663 9.57821L140.796 9.71003L141.549 10.4571L141.612 10.3855ZM116.877 65.4414L119.715 12.1419L161.626 52.5706L116.877 65.4414ZM117.09 66.4205L158.346 54.5544L121.709 74.4844L117.09 66.4205ZM158.035 77.1853L123.263 74.7771L161.934 53.7407L158.035 77.1853ZM159.037 77.2526L162.85 54.3298L175.877 78.3521L159.037 77.2526ZM164.222 78.5932L175.284 79.3155L173.197 80.759L164.222 78.5932ZM166.858 88.2181L173.469 81.8263L190.859 84.2407L166.858 88.2181ZM166.229 89.336L193.674 84.7878L193.181 127.179L166.229 89.336ZM175.348 40.3458L170.518 11.3977L163.35 51.4335L175.348 40.3458ZM176.381 77.1828L163.417 53.2777L178.278 52.654L176.381 77.1828ZM193.239 83.389L179.175 54.0286L177.278 78.5482L193.239 83.389ZM174.637 80.9788L176.835 79.4586L187.934 82.825L174.637 80.9788ZM193.173 47.874L193.649 81.9297L179.516 52.426L193.173 47.874ZM192.164 47.1562L179.173 51.4862L176.605 41.3327L192.164 47.1562ZM192.502 46.2152L176.331 40.1627L171.464 10.9942L192.502 46.2152ZM178.184 51.6571L175.607 41.4679L163.935 52.2551L178.184 51.6571ZM172.295 81.5703L165.458 88.181L159.512 78.4853L172.295 81.5703ZM116.345 67.1317L120.88 75.0492L103.498 90.1355L116.345 67.1317ZM115.665 66.2988L101.694 91.315L78.1898 44.2078L115.665 66.2988ZM110.942 62.3539L78.0007 42.9355L83.491 39.9369L110.942 62.3539ZM101.049 35.6523L84.6443 39.5877L114.906 64.2994L101.049 35.6523ZM118.687 12.6443L115.944 64.1492L101.906 35.1278L118.687 12.6443ZM61.4015 94.9159L76.1581 47.2867L72.3905 97.3979L61.4015 94.9159ZM75.0823 105.132L73.4545 98.4038L98.168 93.5781L75.0823 105.132ZM76.0591 105.761L100.999 93.2795L97.482 112.713L76.0591 105.761ZM76.9341 107.096L97.3507 113.722L96.7412 124.263L76.9341 107.096ZM110.39 118.695L97.7288 124.505L98.3318 114.077L110.39 118.695ZM101.841 94.2411L98.4379 113.047L110.814 117.787L101.841 94.2411ZM145.027 142.582L112.721 118.8L156.33 102.576L145.263 142.57L145.027 142.582ZM77.3505 44.7655L100.928 92.0203L73.3934 97.3969L77.3505 44.7655ZM82.8153 39.1665L77.2063 42.2299L59.1984 5.61517L82.8153 39.1665ZM68.0564 123.141L95.7457 124.723L74.9388 106.69L68.0564 123.141ZM72.4326 98.4326L73.9288 104.616L62.9115 96.2822L72.4326 98.4326ZM50.3395 112.672L60.8954 96.011L73.657 105.665L50.3395 112.672ZM50.4781 113.674L73.8744 106.643L67.0768 122.891L50.4781 113.674ZM42.2808 144.553L66.4536 123.689L49.5326 114.293L42.2808 144.553ZM175.317 145.98L148.033 143.303L191.84 129.803L175.317 145.98ZM157.014 100.938L164.49 89.3924L145.331 87.5457L157.014 100.938Z"/>
</mask>
<path fill-rule="evenodd" clip-rule="evenodd" d="M134.442 2H133.022L139.735 8.65844L119.894 10.4633L121.563 2H120.544L118.988 9.88792L112.492 2H111.196L118.639 11.0369L101.818 33.5738L101.7 2H100.7L100.823 34.6783L84.3212 38.6368L97.139 2H96.0796L83.5272 37.878L69.8965 2H68.8268L81.6675 35.7986L57.8765 2H56.306L75.6649 41.3619L38.7982 15.0842L54.4443 2H52.8855L38.4534 14.069L38.132 2H37.1317L37.4561 14.1867L18.3928 2H16.5362L37.2105 15.2166L11.6518 43.1106C12.0139 43.2056 12.3737 43.3064 12.731 43.413L37.0611 16.8599L28.514 53.5264C28.7883 53.8375 29.0569 54.1536 29.3198 54.4747L38.2986 15.9561L76.1168 42.912L36.5093 70.212C36.5717 70.5759 36.6283 70.9417 36.6791 71.3095L76.0831 44.1498L60.4459 94.6212L35.8264 84.8885C35.7389 85.2125 35.6467 85.5345 35.5499 85.8546L59.7473 95.4203L41.0568 109.395L31.7791 94.1125C31.5819 94.4253 31.3796 94.7346 31.1726 95.0404L40.0562 109.673L3.20302 111.786L4.36429 109.973C3.96452 109.989 3.56298 109.998 3.15979 110L3 110.249V114.586L23.9379 150H25.0996L4.22221 114.689L40.6298 145.915L35.0707 150H36.7595L40.7849 147.042L40.3969 150H41.4054L41.8694 146.463L74.7148 147.742L72.6396 150H73.9979L76.0261 147.794L76.4701 147.31L77.1938 147.271L144.272 143.625L144.33 143.622L144.723 143.6L145.509 143.558L145.264 144L144.937 144.59L141.939 150H143.083L146.329 144.141L175.193 146.972L176.909 150H178.059L177.501 149.017L178.572 150H180.05L177.176 147.361L189.826 150H194.722L176.519 146.202L193.264 129.809L195.164 150H196.169L194.223 129.325L234.843 136.551L196.286 150H199.322L233.91 137.935L222.136 150H223.533L236.029 137.196L236.39 136.826L236.812 136.394L237.305 136.251L239 135.762V134.721L237.243 135.228L235.724 109.844C235.386 109.812 235.05 109.775 234.715 109.733L236.26 135.528L236.097 135.695L236.044 135.749L195.216 128.486L232.598 109.398C232.078 109.299 231.562 109.188 231.051 109.066L194.961 127.494L212.602 97.4294C212.376 97.1517 212.155 96.8703 211.938 96.5854L194.185 126.84L194.673 84.889L207.675 89.2412C207.505 88.8392 207.342 88.4332 207.187 88.0234L196.608 84.4821L205.865 83.6546C205.79 83.328 205.72 82.9996 205.654 82.6695L194.673 83.651L194.18 48.3846L208.055 61.8934C208.202 61.5727 208.353 61.2547 208.509 60.9395L194.568 47.367L239 30.0214V28.9479L194.735 46.2285L218.158 2H217.026L193.637 46.1646L171.35 8.85303L198.57 4.99505L198.671 4.98082L198.757 4.92861L203.633 2H201.691L198.329 4.01918L171.177 7.86765L172.453 2H171.43L170.131 7.97094L143.303 8.46661L148.999 2H147.667L142.162 8.24833L141.948 8.49164L141.5 9L141.036 8.54012L140.789 8.2946L134.442 2ZM232.587 2L239 11.7787V9.95531L233.782 2H232.587ZM236.818 109.931L239 112.035V110.646L238.324 109.993C237.819 109.984 237.317 109.963 236.818 109.931ZM5.96196 42.1272L10.9581 30.7003L11.0721 30.4397L10.9063 30.2086L3 19.1828V20.8989L9.92795 30.5603L4.90328 42.0524C5.25765 42.0719 5.61057 42.0969 5.96196 42.1272ZM3 16.9291V18.7677L13.8675 2H12.6759L3 16.9291ZM11.9556 2L3 6.68428V5.55575L9.79802 2H11.9556ZM40.917 144.844L3.52084 112.77L40.4228 110.654L40.917 144.844ZM58.8875 97.3117L41.9201 109.998L49.0021 112.914L58.8875 97.3117ZM41.4261 110.876L48.6139 113.836L41.8754 141.954L41.4261 110.876ZM75.6028 146.776L75.6911 146.68L67.1116 124.442L42.7199 145.495L75.6028 146.776ZM68.0681 124.143L76.6166 146.301L76.7399 146.294L96.0827 125.744L68.0681 124.143ZM141.954 142.75L78.1873 146.216L97.3171 125.892L141.954 142.75ZM111.621 119.231L98.4782 125.262L142.286 141.806L111.621 119.231ZM147.26 142.461L146.317 142.512L157.361 102.599L192.568 128.532L147.237 142.502L147.26 142.461ZM144.099 87.655L156.22 101.55L113.715 117.363L144.099 87.655ZM142.711 87.6137L111.875 117.763L102.362 92.8001L142.711 87.6137ZM142.483 86.6348L103.246 91.6782L121.589 75.758L142.483 86.6348ZM144.101 86.35L123.877 75.822L156.915 78.1102L144.101 86.35ZM145.611 86.5681L158.294 78.4124L164.407 88.3797L145.611 86.5681ZM191.442 126.46L165.377 89.8631L157.748 101.643L191.442 126.46ZM142.407 9.48333L169.936 8.97471L162.376 51.2026L142.33 9.57084L142.407 9.48333ZM141.612 10.3855L160.935 50.5148L120.408 11.4206L140.663 9.57821L140.796 9.71003L141.549 10.4571L141.612 10.3855ZM116.877 65.4414L119.715 12.1419L161.626 52.5706L116.877 65.4414ZM117.09 66.4205L158.346 54.5544L121.709 74.4844L117.09 66.4205ZM158.035 77.1853L123.263 74.7771L161.934 53.7407L158.035 77.1853ZM159.037 77.2526L162.85 54.3298L175.877 78.3521L159.037 77.2526ZM164.222 78.5932L175.284 79.3155L173.197 80.759L164.222 78.5932ZM166.858 88.2181L173.469 81.8263L190.859 84.2407L166.858 88.2181ZM166.229 89.336L193.674 84.7878L193.181 127.179L166.229 89.336ZM175.348 40.3458L170.518 11.3977L163.35 51.4335L175.348 40.3458ZM176.381 77.1828L163.417 53.2777L178.278 52.654L176.381 77.1828ZM193.239 83.389L179.175 54.0286L177.278 78.5482L193.239 83.389ZM174.637 80.9788L176.835 79.4586L187.934 82.825L174.637 80.9788ZM193.173 47.874L193.649 81.9297L179.516 52.426L193.173 47.874ZM192.164 47.1562L179.173 51.4862L176.605 41.3327L192.164 47.1562ZM192.502 46.2152L176.331 40.1627L171.464 10.9942L192.502 46.2152ZM178.184 51.6571L175.607 41.4679L163.935 52.2551L178.184 51.6571ZM172.295 81.5703L165.458 88.181L159.512 78.4853L172.295 81.5703ZM116.345 67.1317L120.88 75.0492L103.498 90.1355L116.345 67.1317ZM115.665 66.2988L101.694 91.315L78.1898 44.2078L115.665 66.2988ZM110.942 62.3539L78.0007 42.9355L83.491 39.9369L110.942 62.3539ZM101.049 35.6523L84.6443 39.5877L114.906 64.2994L101.049 35.6523ZM118.687 12.6443L115.944 64.1492L101.906 35.1278L118.687 12.6443ZM61.4015 94.9159L76.1581 47.2867L72.3905 97.3979L61.4015 94.9159ZM75.0823 105.132L73.4545 98.4038L98.168 93.5781L75.0823 105.132ZM76.0591 105.761L100.999 93.2795L97.482 112.713L76.0591 105.761ZM76.9341 107.096L97.3507 113.722L96.7412 124.263L76.9341 107.096ZM110.39 118.695L97.7288 124.505L98.3318 114.077L110.39 118.695ZM101.841 94.2411L98.4379 113.047L110.814 117.787L101.841 94.2411ZM145.027 142.582L112.721 118.8L156.33 102.576L145.263 142.57L145.027 142.582ZM77.3505 44.7655L100.928 92.0203L73.3934 97.3969L77.3505 44.7655ZM82.8153 39.1665L77.2063 42.2299L59.1984 5.61517L82.8153 39.1665ZM68.0564 123.141L95.7457 124.723L74.9388 106.69L68.0564 123.141ZM72.4326 98.4326L73.9288 104.616L62.9115 96.2822L72.4326 98.4326ZM50.3395 112.672L60.8954 96.011L73.657 105.665L50.3395 112.672ZM50.4781 113.674L73.8744 106.643L67.0768 122.891L50.4781 113.674ZM42.2808 144.553L66.4536 123.689L49.5326 114.293L42.2808 144.553ZM175.317 145.98L148.033 143.303L191.84 129.803L175.317 145.98ZM157.014 100.938L164.49 89.3924L145.331 87.5457L157.014 100.938Z" fill="white"/>
<path d="M133.022 2V1H130.593L132.317 2.71003L133.022 2ZM134.442 2L135.146 1.28997L134.853 1H134.442V2ZM139.735 8.65844L139.826 9.65433L141.964 9.45989L140.44 7.94841L139.735 8.65844ZM119.894 10.4633L118.913 10.2698L118.654 11.5801L119.984 11.4591L119.894 10.4633ZM121.563 2L122.544 2.1935L122.78 1H121.563V2ZM120.544 2V1H119.722L119.563 1.8065L120.544 2ZM118.988 9.88792L118.216 10.5237L119.56 12.1555L119.969 10.0814L118.988 9.88792ZM112.492 2L113.263 1.36426L112.963 1H112.492V2ZM111.196 2V1H109.077L110.424 2.63574L111.196 2ZM118.639 11.0369L119.44 11.635L119.909 11.0065L119.411 10.4011L118.639 11.0369ZM101.818 33.5738L100.818 33.5776L100.83 36.5705L102.62 34.1719L101.818 33.5738ZM101.7 2L102.7 1.99625L102.696 1H101.7V2ZM100.7 2V1H99.6963L99.7001 2.00375L100.7 2ZM100.823 34.6783L101.056 35.6507L101.825 35.466L101.823 34.6745L100.823 34.6783ZM84.3212 38.6368L83.3773 38.3066L82.772 40.0368L84.5545 39.6092L84.3212 38.6368ZM97.139 2L98.0829 2.33023L98.5483 1H97.139V2ZM96.0796 2V1H95.37L95.1357 1.66977L96.0796 2ZM83.5272 37.878L82.5924 38.2332L83.5659 40.7956L84.4711 38.2083L83.5272 37.878ZM69.8965 2L70.8313 1.64485L70.5863 1H69.8965V2ZM68.8268 2V1H67.3771L67.892 2.35515L68.8268 2ZM81.6675 35.7986L80.8498 36.3742L82.6023 35.4435L81.6675 35.7986ZM57.8765 2L58.6943 1.4244L58.3955 1H57.8765V2ZM56.306 2V1H54.6998L55.4086 2.44133L56.306 2ZM75.6649 41.3619L75.0845 42.1762L76.5623 40.9206L75.6649 41.3619ZM38.7982 15.0842L38.1567 14.317L37.1639 15.1473L38.2178 15.8985L38.7982 15.0842ZM54.4443 2L55.0858 2.76712L57.199 1H54.4443V2ZM52.8855 2V1H52.5225L52.244 1.23288L52.8855 2ZM38.4534 14.069L37.4537 14.0956L37.5087 16.1625L39.0949 14.8361L38.4534 14.069ZM38.132 2L39.1317 1.97338L39.1057 1H38.132V2ZM37.1317 2V1H36.1047L36.132 2.02662L37.1317 2ZM37.4561 14.1867L36.9175 15.0293L38.506 16.0447L38.4558 14.1601L37.4561 14.1867ZM18.3928 2L18.9314 1.15745L18.6851 1H18.3928V2ZM16.5362 2V1H13.1153L15.9976 2.84255L16.5362 2ZM37.2105 15.2166L37.9478 15.8921L38.7516 15.0149L37.7491 14.374L37.2105 15.2166ZM11.6518 43.1106L10.9145 42.435L9.7946 43.6572L11.398 44.0779L11.6518 43.1106ZM12.731 43.413L12.4453 44.3713L13.0453 44.5502L13.4683 44.0885L12.731 43.413ZM37.0611 16.8599L38.035 17.0869L38.901 13.3716L36.3238 16.1843L37.0611 16.8599ZM28.514 53.5264L27.5401 53.2994L27.4232 53.8011L27.7639 54.1877L28.514 53.5264ZM29.3198 54.4747L28.546 55.1082L29.8326 56.6795L30.2937 54.7017L29.3198 54.4747ZM38.2986 15.9561L38.879 15.1417L37.6635 14.2754L37.3247 15.729L38.2986 15.9561ZM76.1168 42.912L76.6843 43.7354L77.859 42.9258L76.6973 42.0977L76.1168 42.912ZM36.5093 70.212L35.9418 69.3886L35.4157 69.7512L35.5237 70.381L36.5093 70.212ZM36.6791 71.3095L35.6885 71.4462L35.9103 73.0539L37.2466 72.1328L36.6791 71.3095ZM76.0831 44.1498L77.0383 44.4457L77.8927 41.688L75.5156 43.3264L76.0831 44.1498ZM60.4459 94.6212L60.0783 95.5511L61.0818 95.9478L61.4011 94.9171L60.4459 94.6212ZM35.8264 84.8885L36.194 83.9586L35.1529 83.547L34.861 84.6278L35.8264 84.8885ZM35.5499 85.8546L34.5927 85.5652L34.3264 86.4462L35.1823 86.7845L35.5499 85.8546ZM59.7473 95.4203L60.3461 96.2212L61.7804 95.1487L60.1149 94.4903L59.7473 95.4203ZM41.0568 109.395L40.202 109.913L40.7736 110.855L41.6556 110.195L41.0568 109.395ZM31.7791 94.1125L32.6339 93.5936L31.7953 92.2123L30.9333 93.5791L31.7791 94.1125ZM31.1726 95.0404L30.3446 94.4797L29.9848 95.0109L30.3178 95.5594L31.1726 95.0404ZM40.0562 109.673L40.1134 110.672L41.7743 110.576L40.911 109.154L40.0562 109.673ZM3.20302 111.786L2.36093 111.247L1.30422 112.897L3.26026 112.785L3.20302 111.786ZM4.36429 109.973L5.20637 110.512L6.24022 108.898L4.32485 108.974L4.36429 109.973ZM3.15979 110L3.15519 109L2.61114 109.002L2.3177 109.46L3.15979 110ZM3 110.249L2.15792 109.71L2 109.956V110.249H3ZM3 114.586H2V114.86L2.1392 115.095L3 114.586ZM23.9379 150L23.0771 150.509L23.3674 151H23.9379V150ZM25.0996 150V151H26.8526L25.9604 149.491L25.0996 150ZM4.22221 114.689L4.87324 113.93L3.36141 115.198L4.22221 114.689ZM40.6298 145.915L41.2219 146.721L42.2363 145.976L41.2808 145.156L40.6298 145.915ZM35.0707 150L34.4786 149.194L32.0211 151H35.0707V150ZM36.7595 150V151H37.0874L37.3516 150.806L36.7595 150ZM40.7849 147.042L41.7764 147.172L42.0812 144.848L40.1927 146.236L40.7849 147.042ZM40.3969 150L39.4054 149.87L39.2571 151H40.3969V150ZM41.4054 150V151H42.2828L42.3969 150.13L41.4054 150ZM41.8694 146.463L41.9084 145.463L40.9966 145.428L40.8779 146.333L41.8694 146.463ZM74.7148 147.742L75.451 148.419L76.9142 146.827L74.7537 146.743L74.7148 147.742ZM72.6396 150L71.9034 149.323L70.3622 151H72.6396V150ZM73.9979 150V151H74.437L74.7342 150.677L73.9979 150ZM76.0261 147.794L76.7623 148.47L76.7623 148.47L76.0261 147.794ZM76.4701 147.31L76.4158 146.312L76.0094 146.334L75.7339 146.634L76.4701 147.31ZM77.1938 147.271L77.1395 146.273L77.1395 146.273L77.1938 147.271ZM144.272 143.625L144.217 142.626L144.217 142.626L144.272 143.625ZM144.33 143.622L144.384 144.62L144.384 144.62L144.33 143.622ZM144.723 143.6L144.778 144.599L144.778 144.599L144.723 143.6ZM145.509 143.558L146.383 144.042L147.26 142.461L145.454 142.559L145.509 143.558ZM145.264 144L146.139 144.484L146.139 144.484L145.264 144ZM144.937 144.59L144.062 144.106L144.062 144.106L144.937 144.59ZM141.939 150L141.065 149.515L140.242 151H141.939V150ZM143.083 150V151H143.672L143.957 150.485L143.083 150ZM146.329 144.141L146.427 143.145L145.773 143.081L145.454 143.656L146.329 144.141ZM175.193 146.972L176.063 146.479L175.807 146.028L175.291 145.977L175.193 146.972ZM176.909 150L176.039 150.493L176.327 151H176.909V150ZM178.059 150V151H179.775L178.929 149.507L178.059 150ZM177.501 149.017L178.178 148.28L176.631 149.51L177.501 149.017ZM178.572 150L177.895 150.737L178.182 151H178.572V150ZM180.05 150V151H182.618L180.727 149.263L180.05 150ZM177.176 147.361L177.38 146.382L173.824 145.639L176.5 148.097L177.176 147.361ZM189.826 150L189.622 150.979L189.723 151H189.826V150ZM194.722 150V151L194.926 149.021L194.722 150ZM176.519 146.202L175.82 145.487L174.481 146.798L176.315 147.181L176.519 146.202ZM193.264 129.809L194.259 129.715L194.063 127.627L192.564 129.094L193.264 129.809ZM195.164 150L194.169 150.094L194.254 151H195.164V150ZM196.169 150V151H197.267L197.164 149.906L196.169 150ZM194.223 129.325L194.398 128.341L193.104 128.11L193.227 129.419L194.223 129.325ZM234.843 136.551L235.172 137.495L238.782 136.236L235.018 135.567L234.843 136.551ZM196.286 150L195.957 149.056L196.286 151V150ZM199.322 150V151H199.492L199.652 150.944L199.322 150ZM233.91 137.935L234.626 138.634L233.581 136.991L233.91 137.935ZM222.136 150L221.421 149.302L219.763 151H222.136V150ZM223.533 150V151H223.955L224.249 150.698L223.533 150ZM236.029 137.196L235.313 136.498L235.313 136.498L236.029 137.196ZM236.39 136.826L237.106 137.525L237.106 137.525L236.39 136.826ZM236.812 136.394L236.535 135.433L236.281 135.506L236.097 135.695L236.812 136.394ZM237.305 136.251L237.582 137.212L237.582 137.212L237.305 136.251ZM239 135.762L239.278 136.722L240 136.514V135.762H239ZM239 134.721H240V133.391L238.722 133.76L239 134.721ZM237.243 135.228L236.245 135.288L236.32 136.536L237.521 136.189L237.243 135.228ZM235.724 109.844L236.722 109.784L236.671 108.93L235.819 108.849L235.724 109.844ZM234.715 109.733L234.84 108.74L233.645 108.59L233.717 109.792L234.715 109.733ZM236.26 135.528L236.975 136.227L237.284 135.91L237.258 135.468L236.26 135.528ZM236.097 135.695L235.381 134.997L235.381 134.997L236.097 135.695ZM236.044 135.749L235.869 136.734L236.39 136.826L236.76 136.448L236.044 135.749ZM195.216 128.486L194.761 127.596L192.11 128.949L195.041 129.471L195.216 128.486ZM232.598 109.398L233.053 110.289L235.652 108.962L232.786 108.416L232.598 109.398ZM231.051 109.066L231.284 108.093L230.925 108.007L230.596 108.175L231.051 109.066ZM194.961 127.494L194.099 126.987L192.365 129.942L195.416 128.384L194.961 127.494ZM212.602 97.4294L213.464 97.9355L213.816 97.3371L213.378 96.7987L212.602 97.4294ZM211.938 96.5854L212.733 95.9794L211.83 94.7935L211.075 96.0793L211.938 96.5854ZM194.185 126.84L193.185 126.829L193.141 130.595L195.047 127.346L194.185 126.84ZM194.673 84.889L194.99 83.9407L193.689 83.5051L193.673 84.8774L194.673 84.889ZM207.675 89.2412L207.357 90.1895L209.46 90.8933L208.596 88.8515L207.675 89.2412ZM207.187 88.0234L208.122 87.6697L207.955 87.2258L207.504 87.0751L207.187 88.0234ZM196.608 84.4821L196.519 83.4861L196.29 85.4304L196.608 84.4821ZM205.865 83.6546L205.954 84.6506L207.097 84.5485L206.84 83.4304L205.865 83.6546ZM205.654 82.6695L206.635 82.4744L206.459 81.5935L205.565 81.6735L205.654 82.6695ZM194.673 83.651L193.673 83.665L193.689 84.743L194.762 84.647L194.673 83.651ZM194.18 48.3846L194.878 47.6681L193.146 45.9825L193.18 48.3985L194.18 48.3846ZM208.055 61.8934L207.358 62.6099L208.375 63.6005L208.965 62.3088L208.055 61.8934ZM208.509 60.9395L209.405 61.383L209.728 60.7307L209.207 60.223L208.509 60.9395ZM194.568 47.367L194.205 46.4354L192.758 47.0002L193.871 48.0835L194.568 47.367ZM239 30.0214L239.364 30.9529L240 30.7045V30.0214H239ZM239 28.9479H240V27.484L238.636 28.0164L239 28.9479ZM194.735 46.2285L193.851 45.7605L192.592 48.1386L195.098 47.16L194.735 46.2285ZM218.158 2L219.042 2.46801L219.819 1H218.158V2ZM217.026 2V1H216.424L216.143 1.53199L217.026 2ZM193.637 46.1646L192.778 46.6774L193.689 48.2024L194.521 46.6327L193.637 46.1646ZM171.35 8.85303L171.21 7.86292L169.72 8.07407L170.492 9.36583L171.35 8.85303ZM198.57 4.99505L198.43 4.00495L198.43 4.00495L198.57 4.99505ZM198.671 4.98082L198.811 5.97093L199.012 5.94247L199.186 5.83804L198.671 4.98082ZM198.757 4.92861L198.243 4.07139L198.243 4.07139L198.757 4.92861ZM203.633 2L204.148 2.85722L207.239 1H203.633V2ZM201.691 2V1H201.413L201.176 1.14278L201.691 2ZM198.329 4.01918L198.47 5.00928L198.671 4.98083L198.844 4.8764L198.329 4.01918ZM171.177 7.86765L170.199 7.65504L169.894 9.05946L171.317 8.85776L171.177 7.86765ZM172.453 2L173.431 2.21262L173.694 1H172.453V2ZM171.43 2V1H170.624L170.453 1.78738L171.43 2ZM170.131 7.97094L170.149 8.97077L170.94 8.95616L171.108 8.18356L170.131 7.97094ZM143.303 8.46661L142.552 7.80558L141.052 9.50836L143.321 9.46644L143.303 8.46661ZM148.999 2L149.75 2.66103L151.213 1L148.999 1V2ZM147.667 2V1H147.215L146.916 1.33897L147.667 2ZM142.162 8.24833L141.412 7.5873L141.412 7.58731L142.162 8.24833ZM141.948 8.49164L142.698 9.15268L142.698 9.15267L141.948 8.49164ZM141.5 9L140.796 9.71003L141.549 10.4571L142.25 9.66104L141.5 9ZM141.036 8.54012L140.332 9.25014L140.332 9.25015L141.036 8.54012ZM140.789 8.2946L141.493 7.58457L141.493 7.58457L140.789 8.2946ZM239 11.7787L238.164 12.3271L240 15.1268V11.7787H239ZM232.587 2V1H230.735L231.75 2.54843L232.587 2ZM239 9.95531H240V9.65664L239.836 9.40688L239 9.95531ZM233.782 2L234.619 1.45157L234.323 1H233.782V2ZM239 112.035L238.306 112.755L240 114.388V112.035H239ZM236.818 109.931L236.882 108.933L234.164 108.761L236.124 110.651L236.818 109.931ZM239 110.646H240V110.221L239.694 109.926L239 110.646ZM238.324 109.993L239.018 109.274L238.735 109.001L238.343 108.994L238.324 109.993ZM10.9581 30.7003L10.0419 30.2997L10.0419 30.2997L10.9581 30.7003ZM5.96196 42.1272L5.87598 43.1235L6.59079 43.1852L6.87821 42.5278L5.96196 42.1272ZM11.0721 30.4397L11.9883 30.8404L12.2162 30.3192L11.8847 29.857L11.0721 30.4397ZM10.9063 30.2086L10.0937 30.7914L10.0937 30.7914L10.9063 30.2086ZM3 19.1828L3.81266 18.6001L2 16.0723V19.1828H3ZM3 20.8989H2V21.2204L2.18734 21.4816L3 20.8989ZM9.92795 30.5603L10.8442 30.9609L11.0721 30.4397L10.7406 29.9775L9.92795 30.5603ZM4.90328 42.0524L3.98704 41.6518L3.41001 42.9715L4.84819 43.0509L4.90328 42.0524ZM3 18.7677H2V22.1493L3.83916 19.3116L3 18.7677ZM3 16.9291L2.16084 16.3852L2 16.6334V16.9291H3ZM13.8675 2L14.7067 2.54388L15.7073 1H13.8675V2ZM12.6759 2V1H12.1324L11.8367 1.45612L12.6759 2ZM11.9556 2L12.4191 2.88611L11.9556 1V2ZM3 6.68428H2V8.33587L3.46348 7.57039L3 6.68428ZM3 5.55575L2.53652 4.66964L2 4.95027V5.55575H3ZM9.79802 2V1H9.55229L9.33454 1.11389L9.79802 2ZM3.52084 112.77L3.4636 111.771L0.986413 111.913L2.86981 113.529L3.52084 112.77ZM40.917 144.844L40.266 145.603L41.949 147.047L41.9169 144.83L40.917 144.844ZM40.4228 110.654L41.4227 110.639L41.4076 109.596L40.3656 109.655L40.4228 110.654ZM41.9201 109.998L41.3213 109.197L39.9104 110.252L41.5393 110.922L41.9201 109.998ZM58.8875 97.3117L59.7323 97.8469L58.2887 96.5108L58.8875 97.3117ZM49.0021 112.914L48.6213 113.839L49.3975 114.158L49.8468 113.449L49.0021 112.914ZM48.6139 113.836L49.5864 114.069L49.7857 113.237L48.9947 112.911L48.6139 113.836ZM41.4261 110.876L41.8069 109.951L40.4043 109.374L40.4262 110.89L41.4261 110.876ZM41.8754 141.954L40.8755 141.968L42.8478 142.187L41.8754 141.954ZM75.6911 146.68L76.4273 147.357L76.8476 146.9L76.624 146.32L75.6911 146.68ZM75.6028 146.776L75.5639 147.776L76.026 147.794L76.339 147.453L75.6028 146.776ZM67.1116 124.442L68.0445 124.082L67.5333 122.757L66.4582 123.685L67.1116 124.442ZM42.7199 145.495L42.0665 144.738L40.1461 146.395L42.681 146.494L42.7199 145.495ZM76.6166 146.301L75.6836 146.661L75.9452 147.339L76.6708 147.3L76.6166 146.301ZM68.0681 124.143L68.1251 123.145L66.5769 123.056L67.1351 124.503L68.0681 124.143ZM76.7399 146.294L76.7941 147.293L77.1938 147.271L77.4681 146.98L76.7399 146.294ZM96.0827 125.744L96.8109 126.43L98.2806 124.868L96.1398 124.746L96.0827 125.744ZM78.1873 146.216L77.4591 145.53L75.7464 147.35L78.2415 147.214L78.1873 146.216ZM141.954 142.75L142.008 143.748L142.307 141.814L141.954 142.75ZM97.3171 125.892L97.6704 124.956L97.0462 124.721L96.5889 125.207L97.3171 125.892ZM98.4782 125.262L98.0612 124.353L95.8851 125.351L98.1249 126.197L98.4782 125.262ZM111.621 119.231L112.213 118.426L111.739 118.077L111.204 118.322L111.621 119.231ZM142.286 141.806L141.933 142.742L142.879 141.001L142.286 141.806ZM146.317 142.512L145.353 142.246L144.982 143.586L146.371 143.511L146.317 142.512ZM147.26 142.461L148.134 142.946L149.01 141.364L147.205 141.463L147.26 142.461ZM157.361 102.599L157.954 101.794L156.784 100.933L156.397 102.333L157.361 102.599ZM192.568 128.532L192.862 129.488L194.758 128.903L193.161 127.727L192.568 128.532ZM147.237 142.502L146.362 142.017L145.159 144.189L147.532 143.458L147.237 142.502ZM156.22 101.55L156.569 102.487L157.925 101.982L156.974 100.892L156.22 101.55ZM144.099 87.655L144.853 86.9976L144.157 86.2L143.4 86.94L144.099 87.655ZM113.715 117.363L113.016 116.648L114.064 118.3L113.715 117.363ZM111.875 117.763L110.941 118.119L111.484 119.544L112.575 118.478L111.875 117.763ZM142.711 87.6137L143.41 88.3288L145.545 86.2412L142.583 86.6219L142.711 87.6137ZM102.362 92.8001L102.235 91.8082L100.976 91.97L101.428 93.1562L102.362 92.8001ZM103.246 91.6782L102.591 90.923L100.092 93.0919L103.374 92.67L103.246 91.6782ZM142.483 86.6348L142.61 87.6267L145.773 87.2201L142.945 85.7478L142.483 86.6348ZM121.589 75.758L122.05 74.871L121.447 74.5568L120.933 75.0028L121.589 75.758ZM123.877 75.822L123.947 74.8244L123.416 76.709L123.877 75.822ZM144.101 86.35L143.64 87.237L144.154 87.5049L144.642 87.1911L144.101 86.35ZM156.915 78.1102L157.456 78.9513L159.992 77.3208L156.984 77.1126L156.915 78.1102ZM158.294 78.4124L159.147 77.8896L158.613 77.0187L157.753 77.5712L158.294 78.4124ZM145.611 86.5681L145.07 85.727L142.645 87.2868L145.515 87.5635L145.611 86.5681ZM164.407 88.3797L164.311 89.3751L166.308 89.5676L165.259 87.8569L164.407 88.3797ZM165.377 89.8631L166.192 89.283L165.338 88.0841L164.538 89.3195L165.377 89.8631ZM191.442 126.46L190.849 127.266L192.256 125.88L191.442 126.46ZM157.748 101.643L156.909 101.099L156.397 101.889L157.155 102.448L157.748 101.643ZM169.936 8.97471L170.92 9.15094L171.135 7.95239L169.917 7.97488L169.936 8.97471ZM142.407 9.48333L142.388 8.4835L141.948 8.49164L141.657 8.82234L142.407 9.48333ZM162.376 51.2026L161.475 51.6364L162.816 54.4209L163.36 51.3788L162.376 51.2026ZM142.33 9.57084L141.579 8.90986L141.141 9.40735L141.429 10.0047L142.33 9.57084ZM160.935 50.5148L160.241 51.2345L161.836 50.081L160.935 50.5148ZM141.612 10.3855L142.513 9.95163L141.859 8.59272L140.862 9.72442L141.612 10.3855ZM120.408 11.4206L120.317 10.4247L118.14 10.6228L119.714 12.1403L120.408 11.4206ZM140.663 9.57821L141.367 8.86819L141.036 8.54011L140.572 8.58232L140.663 9.57821ZM140.796 9.71003L140.092 10.42L140.092 10.4201L140.796 9.71003ZM141.549 10.4571L140.845 11.1671L141.598 11.9141L142.299 11.1181L141.549 10.4571ZM119.715 12.1419L120.409 11.4222L118.833 9.90152L118.717 12.0887L119.715 12.1419ZM116.877 65.4414L115.878 65.3883L115.803 66.7907L117.153 66.4025L116.877 65.4414ZM161.626 52.5706L161.902 53.5316L163.566 53.053L162.32 51.8508L161.626 52.5706ZM158.346 54.5544L158.824 55.4328L158.07 53.5934L158.346 54.5544ZM117.09 66.4205L116.814 65.4594L115.589 65.8117L116.223 66.9174L117.09 66.4205ZM121.709 74.4844L120.841 74.9814L121.327 75.8304L122.186 75.3629L121.709 74.4844ZM123.263 74.7771L122.785 73.8987L119.772 75.5377L123.194 75.7747L123.263 74.7771ZM158.035 77.1853L157.966 78.1829L158.872 78.2457L159.021 77.3494L158.035 77.1853ZM161.934 53.7407L162.921 53.9048L163.257 51.8828L161.457 52.8623L161.934 53.7407ZM162.85 54.3298L163.729 53.853L162.341 51.2938L161.864 54.1657L162.85 54.3298ZM159.037 77.2526L158.051 77.0885L157.87 78.1785L158.972 78.2504L159.037 77.2526ZM175.877 78.3521L175.812 79.35L177.62 79.468L176.756 77.8754L175.877 78.3521ZM175.284 79.3155L175.852 80.1379L178.214 78.5047L175.349 78.3176L175.284 79.3155ZM164.222 78.5932L164.287 77.5954L163.987 79.5653L164.222 78.5932ZM173.197 80.759L172.962 81.7311L173.397 81.8361L173.765 81.5814L173.197 80.759ZM173.469 81.8263L173.607 80.8358L173.124 80.7688L172.774 81.1074L173.469 81.8263ZM166.858 88.2181L166.163 87.4992L163.857 89.7292L167.022 89.2046L166.858 88.2181ZM190.859 84.2407L191.023 85.2272L190.997 83.2502L190.859 84.2407ZM193.674 84.7878L194.674 84.7995L194.688 83.6062L193.511 83.8013L193.674 84.7878ZM166.229 89.336L166.066 88.3494L164.485 88.6113L165.415 89.9161L166.229 89.336ZM193.181 127.179L192.366 127.759L194.145 130.257L194.181 127.191L193.181 127.179ZM170.518 11.3977L171.504 11.2332L169.534 11.2215L170.518 11.3977ZM175.348 40.3458L176.027 41.0802L176.423 40.7137L176.334 40.1812L175.348 40.3458ZM163.35 51.4335L162.366 51.2573L161.841 54.19L164.029 52.1679L163.35 51.4335ZM163.417 53.2777L163.375 52.2786L161.774 52.3458L162.538 53.7544L163.417 53.2777ZM176.381 77.1828L175.502 77.6595L177.117 80.6373L177.378 77.2599L176.381 77.1828ZM178.278 52.654L179.275 52.7311L179.362 51.6076L178.236 51.6549L178.278 52.654ZM179.175 54.0286L180.076 53.5966L178.465 50.233L178.178 53.9515L179.175 54.0286ZM193.239 83.389L192.949 84.3459L195.122 85.0051L194.141 82.957L193.239 83.389ZM177.278 78.5482L176.281 78.4711L176.219 79.272L176.988 79.5051L177.278 78.5482ZM176.835 79.4586L177.125 78.5017L176.663 78.3615L176.266 78.6362L176.835 79.4586ZM174.637 80.9788L174.068 80.1563L171.957 81.6163L174.499 81.9693L174.637 80.9788ZM187.934 82.825L187.797 83.8155L188.224 81.868L187.934 82.825ZM193.649 81.9297L192.747 82.3617L194.649 81.9157L193.649 81.9297ZM193.173 47.874L194.173 47.86L194.154 46.4931L192.857 46.9253L193.173 47.874ZM179.516 52.426L179.199 51.4773L178.124 51.8357L178.614 52.858L179.516 52.426ZM179.173 51.4862L178.203 51.7314L178.467 52.7754L179.489 52.4349L179.173 51.4862ZM192.164 47.1562L192.48 48.1049L195.162 47.2109L192.514 46.2197L192.164 47.1562ZM176.605 41.3327L176.955 40.3961L175.167 39.7268L175.635 41.5779L176.605 41.3327ZM176.331 40.1627L175.345 40.3273L175.44 40.8968L175.981 41.0992L176.331 40.1627ZM192.502 46.2152L192.152 47.1518L194.824 48.1519L193.361 45.7024L192.502 46.2152ZM171.464 10.9942L172.323 10.4814L170.478 11.1588L171.464 10.9942ZM175.607 41.4679L176.577 41.2227L176.164 39.5916L174.929 40.7335L175.607 41.4679ZM178.184 51.6571L178.226 52.6562L179.455 52.6046L179.154 51.4119L178.184 51.6571ZM163.935 52.2551L163.256 51.5207L161.257 53.3684L163.977 53.2543L163.935 52.2551ZM165.458 88.181L164.605 88.7038L165.257 89.7662L166.153 88.9L165.458 88.181ZM172.295 81.5703L172.99 82.2892L174.298 81.0249L172.53 80.5982L172.295 81.5703ZM159.512 78.4853L159.747 77.5132L157.395 76.9457L158.66 79.0081L159.512 78.4853ZM120.88 75.0492L121.535 75.8044L122.156 75.2656L121.747 74.5523L120.88 75.0492ZM116.345 67.1317L117.213 66.6348L116.334 65.1004L115.472 66.6441L116.345 67.1317ZM103.498 90.1355L102.625 89.6479L104.154 90.8907L103.498 90.1355ZM101.694 91.315L100.799 91.7615L101.644 93.4551L102.567 91.8026L101.694 91.315ZM115.665 66.2988L116.538 66.7863L117.015 65.9334L116.173 65.4373L115.665 66.2988ZM78.1898 44.2078L78.6976 43.3463L75.786 41.63L77.295 44.6542L78.1898 44.2078ZM78.0007 42.9355L77.5213 42.0578L75.9752 42.9023L77.4928 43.797L78.0007 42.9355ZM110.942 62.3539L110.435 63.2154L111.575 61.5794L110.942 62.3539ZM83.491 39.9369L84.1235 39.1624L83.6022 38.7367L83.0116 39.0593L83.491 39.9369ZM84.6443 39.5877L84.411 38.6153L82.4489 39.086L84.0118 40.3622L84.6443 39.5877ZM101.049 35.6523L101.949 35.2168L101.599 34.492L100.816 34.6799L101.049 35.6523ZM114.906 64.2994L114.273 65.074L115.806 63.864L114.906 64.2994ZM115.944 64.1492L115.044 64.5846L116.943 64.2024L115.944 64.1492ZM118.687 12.6443L119.686 12.6975L119.861 9.39909L117.886 12.0462L118.687 12.6443ZM101.906 35.1278L101.105 34.5297L100.742 35.0165L101.006 35.5633L101.906 35.1278ZM76.1581 47.2867L77.1553 47.3617L75.2029 46.9908L76.1581 47.2867ZM61.4015 94.9159L60.4463 94.62L60.1262 95.6531L61.1812 95.8914L61.4015 94.9159ZM72.3905 97.3979L72.1702 98.3733L73.3008 98.6287L73.3877 97.4728L72.3905 97.3979ZM73.4545 98.4038L73.2629 97.4223L72.2367 97.6227L72.4826 98.639L73.4545 98.4038ZM75.0823 105.132L74.1104 105.367L74.4059 106.588L75.5299 106.026L75.0823 105.132ZM98.168 93.5781L98.6156 94.4724L97.9764 92.5967L98.168 93.5781ZM100.999 93.2795L101.983 93.4576L102.339 91.4906L100.552 92.3852L100.999 93.2795ZM76.0591 105.761L75.6115 104.867L73.4292 105.959L75.7504 106.712L76.0591 105.761ZM97.482 112.713L97.1734 113.664L98.2622 114.018L98.466 112.891L97.482 112.713ZM97.3507 113.722L98.349 113.78L98.3936 113.009L97.6593 112.771L97.3507 113.722ZM76.9341 107.096L77.2428 106.145L76.2791 107.852L76.9341 107.096ZM96.7412 124.263L96.0862 125.019L97.6222 126.35L97.7395 124.321L96.7412 124.263ZM97.7288 124.505L96.7305 124.447L96.6345 126.108L98.1459 125.414L97.7288 124.505ZM110.39 118.695L110.807 119.604L112.969 118.612L110.748 117.762L110.39 118.695ZM98.3318 114.077L98.6895 113.143L97.4124 112.654L97.3335 114.019L98.3318 114.077ZM98.4379 113.047L97.4539 112.869L97.3063 113.684L98.0802 113.981L98.4379 113.047ZM101.841 94.2411L102.776 93.885L101.497 90.529L100.857 94.063L101.841 94.2411ZM110.814 117.787L110.457 118.721L112.545 119.521L111.749 117.431L110.814 117.787ZM112.721 118.8L112.373 117.863L110.638 118.508L112.129 119.605L112.721 118.8ZM145.027 142.582L144.434 143.388L144.723 143.6L145.082 143.581L145.027 142.582ZM156.33 102.576L157.294 102.843L157.816 100.956L155.981 101.639L156.33 102.576ZM145.263 142.57L145.318 143.568L146.035 143.529L146.227 142.836L145.263 142.57ZM100.928 92.0203L101.12 93.0017L102.41 92.7498L101.823 91.5738L100.928 92.0203ZM77.3505 44.7655L78.2453 44.319L76.6253 41.0723L76.3533 44.6905L77.3505 44.7655ZM73.3934 97.3969L72.3962 97.3219L72.2979 98.6297L73.585 98.3783L73.3934 97.3969ZM77.2063 42.2299L76.3089 42.6713L76.7695 43.6079L77.6856 43.1076L77.2063 42.2299ZM82.8153 39.1665L83.2946 40.0441L84.2779 39.5071L83.633 38.5909L82.8153 39.1665ZM59.1984 5.61517L60.0161 5.03957L58.3011 6.0565L59.1984 5.61517ZM95.7457 124.723L95.6886 125.722L98.6176 125.889L96.4006 123.968L95.7457 124.723ZM68.0564 123.141L67.1339 122.755L66.5885 124.059L67.9994 124.139L68.0564 123.141ZM74.9388 106.69L75.5937 105.935L74.5495 105.03L74.0162 106.304L74.9388 106.69ZM73.9288 104.616L73.3255 105.414L75.5595 107.104L74.9007 104.381L73.9288 104.616ZM72.4326 98.4326L73.4046 98.1974L73.2586 97.5939L72.653 97.4572L72.4326 98.4326ZM62.9115 96.2822L63.1318 95.3067L62.3082 97.0797L62.9115 96.2822ZM60.8954 96.011L61.4987 95.2135L60.6322 94.558L60.0507 95.4758L60.8954 96.011ZM50.3395 112.672L49.4948 112.136L48.0601 114.401L50.6273 113.629L50.3395 112.672ZM73.657 105.665L73.9448 106.622L75.8312 106.055L74.2603 104.867L73.657 105.665ZM73.8744 106.643L74.7969 107.029L75.6139 105.077L73.5866 105.686L73.8744 106.643ZM50.4781 113.674L50.1903 112.716L47.9215 113.398L49.9927 114.548L50.4781 113.674ZM67.0768 122.891L66.5913 123.766L67.5681 124.308L67.9993 123.277L67.0768 122.891ZM66.4536 123.689L67.107 124.446L68.1913 123.51L66.9391 122.815L66.4536 123.689ZM42.2808 144.553L41.3084 144.32L40.5852 147.338L42.9342 145.31L42.2808 144.553ZM49.5326 114.293L50.0181 113.419L48.867 112.779L48.5602 114.06L49.5326 114.293ZM148.033 143.303L147.739 142.347L147.935 144.298L148.033 143.303ZM175.317 145.98L175.219 146.975L175.683 147.02L176.016 146.694L175.317 145.98ZM191.84 129.803L192.54 130.517L191.546 128.847L191.84 129.803ZM164.49 89.3924L165.33 89.936L166.224 88.5549L164.586 88.397L164.49 89.3924ZM157.014 100.938L156.26 101.595L157.132 102.594L157.853 101.481L157.014 100.938ZM145.331 87.5457L145.427 86.5504L142.925 86.3092L144.577 88.2031L145.331 87.5457ZM133.022 3H134.442V1H133.022V3ZM140.44 7.94841L133.726 1.28997L132.317 2.71003L139.031 9.36847L140.44 7.94841ZM119.984 11.4591L139.826 9.65433L139.645 7.66255L119.803 9.46737L119.984 11.4591ZM120.582 1.8065L118.913 10.2698L120.875 10.6568L122.544 2.1935L120.582 1.8065ZM120.544 3H121.563V1H120.544V3ZM119.969 10.0814L121.525 2.1935L119.563 1.8065L118.007 9.69441L119.969 10.0814ZM111.72 2.63574L118.216 10.5237L119.76 9.25218L113.263 1.36426L111.72 2.63574ZM111.196 3H112.492V1H111.196V3ZM119.411 10.4011L111.968 1.36426L110.424 2.63574L117.867 11.6726L119.411 10.4011ZM102.62 34.1719L119.44 11.635L117.837 10.4388L101.017 32.9757L102.62 34.1719ZM100.7 2.00375L100.818 33.5776L102.818 33.5701L102.7 1.99625L100.7 2.00375ZM100.7 3H101.7V1H100.7V3ZM101.823 34.6745L101.7 1.99625L99.7001 2.00375L99.8225 34.682L101.823 34.6745ZM84.5545 39.6092L101.056 35.6507L100.589 33.7059L84.0879 37.6644L84.5545 39.6092ZM96.1951 1.66977L83.3773 38.3066L85.2651 38.967L98.0829 2.33023L96.1951 1.66977ZM96.0796 3H97.139V1H96.0796V3ZM84.4711 38.2083L97.0235 2.33023L95.1357 1.66977L82.5833 37.5478L84.4711 38.2083ZM68.9617 2.35515L82.5924 38.2332L84.462 37.5229L70.8313 1.64485L68.9617 2.35515ZM68.8268 3H69.8965V1H68.8268V3ZM67.892 2.35515L80.7327 36.1538L82.6023 35.4435L69.7616 1.64485L67.892 2.35515ZM82.4852 35.223L58.6943 1.4244L57.0588 2.5756L80.8498 36.3742L82.4852 35.223ZM56.306 3H57.8765V1H56.306V3ZM76.5623 40.9206L57.2033 1.55867L55.4086 2.44133L74.7676 41.8032L76.5623 40.9206ZM38.2178 15.8985L75.0845 42.1762L76.2454 40.5476L39.3786 14.2698L38.2178 15.8985ZM53.8028 1.23288L38.1567 14.317L39.4397 15.8513L55.0858 2.76712L53.8028 1.23288ZM52.8855 3H54.4443V1H52.8855V3ZM52.244 1.23288L37.8118 13.3018L39.0949 14.8361L53.527 2.76712L52.244 1.23288ZM39.453 14.0424L39.1317 1.97338L37.1324 2.02662L37.4537 14.0956L39.453 14.0424ZM37.1317 3H38.132V1H37.1317V3ZM38.4558 14.1601L38.1313 1.97338L36.132 2.02662L36.4565 14.2133L38.4558 14.1601ZM17.8542 2.84255L36.9175 15.0293L37.9948 13.3442L18.9314 1.15745L17.8542 2.84255ZM16.5362 3H18.3928V1H16.5362V3ZM37.7491 14.374L17.0748 1.15745L15.9976 2.84255L36.6719 16.0591L37.7491 14.374ZM12.3891 43.7862L37.9478 15.8921L36.4732 14.541L10.9145 42.435L12.3891 43.7862ZM13.0167 42.4547C12.6488 42.345 12.2784 42.2411 11.9055 42.1433L11.398 44.0779C11.7494 44.17 12.0985 44.2679 12.4453 44.3713L13.0167 42.4547ZM36.3238 16.1843L11.9937 42.7374L13.4683 44.0885L37.7984 17.5354L36.3238 16.1843ZM29.4879 53.7534L38.035 17.0869L36.0872 16.6328L27.5401 53.2994L29.4879 53.7534ZM30.0935 53.8412C29.8229 53.5107 29.5464 53.1853 29.2642 52.8651L27.7639 54.1877C28.0301 54.4896 28.2909 54.7966 28.546 55.1082L30.0935 53.8412ZM37.3247 15.729L28.3459 54.2477L30.2937 54.7017L39.2725 16.1831L37.3247 15.729ZM76.6973 42.0977L38.879 15.1417L37.7181 16.7704L75.5364 43.7263L76.6973 42.0977ZM37.0768 71.0353L76.6843 43.7354L75.5493 42.0887L35.9418 69.3886L37.0768 71.0353ZM37.6697 71.1728C37.6175 70.7942 37.5592 70.4175 37.4949 70.0429L35.5237 70.381C35.5843 70.7342 35.6392 71.0892 35.6885 71.4462L37.6697 71.1728ZM75.5156 43.3264L36.1116 70.4861L37.2466 72.1328L76.6506 44.9732L75.5156 43.3264ZM61.4011 94.9171L77.0383 44.4457L75.1279 43.8539L59.4907 94.3252L61.4011 94.9171ZM35.4587 85.8185L60.0783 95.5511L60.8135 93.6912L36.194 83.9586L35.4587 85.8185ZM36.5071 86.144C36.6068 85.8144 36.7017 85.4829 36.7918 85.1493L34.861 84.6278C34.7761 84.9421 34.6866 85.2546 34.5927 85.5652L36.5071 86.144ZM60.1149 94.4903L35.9176 84.9246L35.1823 86.7845L59.3796 96.3502L60.1149 94.4903ZM41.6556 110.195L60.3461 96.2212L59.1484 94.6194L40.458 108.594L41.6556 110.195ZM30.9243 94.6315L40.202 109.913L41.9116 108.876L32.6339 93.5936L30.9243 94.6315ZM32.0006 95.6011C32.2137 95.2864 32.4219 94.968 32.6249 94.646L30.9333 93.5791C30.7418 93.8827 30.5455 94.1829 30.3446 94.4797L32.0006 95.6011ZM40.911 109.154L32.0274 94.5215L30.3178 95.5594L39.2013 110.192L40.911 109.154ZM3.26026 112.785L40.1134 110.672L39.9989 108.675L3.14577 110.788L3.26026 112.785ZM3.5222 109.434L2.36093 111.247L4.0451 112.326L5.20637 110.512L3.5222 109.434ZM3.16438 111C3.5792 110.998 3.99235 110.989 4.40372 110.972L4.32485 108.974C3.93669 108.989 3.54677 108.998 3.15519 109L3.16438 111ZM3.84208 110.788L4.00187 110.539L2.3177 109.46L2.15792 109.71L3.84208 110.788ZM4 114.586V110.249H2V114.586H4ZM24.7987 149.491L3.8608 114.077L2.1392 115.095L23.0771 150.509L24.7987 149.491ZM25.0996 149H23.9379V151H25.0996V149ZM3.36141 115.198L24.2388 150.509L25.9604 149.491L5.08302 114.18L3.36141 115.198ZM41.2808 145.156L4.87324 113.93L3.57118 115.448L39.9787 146.674L41.2808 145.156ZM35.6629 150.806L41.2219 146.721L40.0376 145.109L34.4786 149.194L35.6629 150.806ZM36.7595 149H35.0707V151H36.7595V149ZM40.1927 146.236L36.1673 149.194L37.3516 150.806L41.377 147.848L40.1927 146.236ZM41.3884 150.13L41.7764 147.172L39.7934 146.912L39.4054 149.87L41.3884 150.13ZM41.4054 149H40.3969V151H41.4054V149ZM40.8779 146.333L40.4139 149.87L42.3969 150.13L42.8609 146.593L40.8779 146.333ZM74.7537 146.743L41.9084 145.463L41.8305 147.462L74.6758 148.742L74.7537 146.743ZM73.3759 150.677L75.451 148.419L73.9785 147.066L71.9034 149.323L73.3759 150.677ZM73.9979 149H72.6396V151H73.9979V149ZM74.7342 150.677L76.7623 148.47L75.2898 147.117L73.2617 149.323L74.7342 150.677ZM76.7623 148.47L77.2063 147.987L75.7339 146.634L75.2898 147.117L76.7623 148.47ZM76.5244 148.309L77.2481 148.27L77.1395 146.273L76.4158 146.312L76.5244 148.309ZM77.2481 148.27L144.326 144.624L144.217 142.626L77.1395 146.273L77.2481 148.27ZM144.326 144.624L144.384 144.62L144.276 142.623L144.217 142.626L144.326 144.624ZM144.384 144.62L144.778 144.599L144.669 142.602L144.276 142.623L144.384 144.62ZM144.778 144.599L145.563 144.556L145.454 142.559L144.669 142.602L144.778 144.599ZM144.634 143.073L144.389 143.515L146.139 144.484L146.383 144.042L144.634 143.073ZM144.389 143.515L144.062 144.106L145.811 145.075L146.139 144.484L144.389 143.515ZM144.062 144.106L141.065 149.515L142.814 150.485L145.811 145.075L144.062 144.106ZM143.083 149H141.939V151H143.083V149ZM145.454 143.656L142.208 149.515L143.957 150.485L147.204 144.625L145.454 143.656ZM175.291 145.977L146.427 143.145L146.231 145.136L175.095 147.967L175.291 145.977ZM177.779 149.507L176.063 146.479L174.323 147.465L176.039 150.493L177.779 149.507ZM178.059 149H176.909V151H178.059V149ZM176.631 149.51L177.189 150.493L178.929 149.507L178.371 148.524L176.631 149.51ZM179.248 149.263L178.178 148.28L176.825 149.753L177.895 150.737L179.248 149.263ZM180.05 149H178.572V151H180.05V149ZM176.5 148.097L179.374 150.737L180.727 149.263L177.853 146.624L176.5 148.097ZM190.03 149.021L177.38 146.382L176.972 148.339L189.622 150.979L190.03 149.021ZM194.722 149H189.826V151H194.722V149ZM176.315 147.181L194.517 150.979L194.926 149.021L176.723 145.223L176.315 147.181ZM192.564 129.094L175.82 145.487L177.219 146.916L193.963 130.523L192.564 129.094ZM196.16 149.906L194.259 129.715L192.268 129.902L194.169 150.094L196.16 149.906ZM196.169 149H195.164V151H196.169V149ZM193.227 129.419L195.173 150.094L197.164 149.906L195.218 129.231L193.227 129.419ZM235.018 135.567L194.398 128.341L194.047 130.31L234.667 137.536L235.018 135.567ZM196.616 150.944L235.172 137.495L234.513 135.607L195.957 149.056L196.616 150.944ZM199.322 149H196.286V151H199.322V149ZM233.581 136.991L198.993 149.056L199.652 150.944L234.24 138.88L233.581 136.991ZM222.852 150.698L234.626 138.634L233.195 137.237L221.421 149.302L222.852 150.698ZM223.533 149H222.136V151H223.533V149ZM224.249 150.698L236.744 137.895L235.313 136.498L222.818 149.302L224.249 150.698ZM236.744 137.895L237.106 137.525L235.674 136.128L235.313 136.498L236.744 137.895ZM237.106 137.525L237.528 137.092L236.097 135.695L235.674 136.128L237.106 137.525ZM237.09 137.354L237.582 137.212L237.027 135.291L236.535 135.433L237.09 137.354ZM237.582 137.212L239.278 136.722L238.722 134.801L237.027 135.291L237.582 137.212ZM238 134.721V135.762H240V134.721H238ZM237.521 136.189L239.278 135.681L238.722 133.76L236.966 134.268L237.521 136.189ZM234.725 109.904L236.245 135.288L238.242 135.168L236.722 109.784L234.725 109.904ZM234.59 110.725C234.935 110.768 235.281 110.806 235.628 110.84L235.819 108.849C235.491 108.817 235.165 108.781 234.84 108.74L234.59 110.725ZM237.258 135.468L235.713 109.673L233.717 109.792L235.261 135.588L237.258 135.468ZM236.812 136.394L236.975 136.227L235.544 134.83L235.381 134.997L236.812 136.394ZM236.76 136.448L236.812 136.394L235.381 134.997L235.328 135.051L236.76 136.448ZM195.041 129.471L235.869 136.734L236.219 134.765L195.391 127.502L195.041 129.471ZM232.144 108.508L194.761 127.596L195.671 129.377L233.053 110.289L232.144 108.508ZM230.818 110.038C231.345 110.164 231.876 110.279 232.411 110.381L232.786 108.416C232.281 108.32 231.78 108.212 231.284 108.093L230.818 110.038ZM230.596 108.175L194.506 126.603L195.416 128.384L231.506 109.956L230.596 108.175ZM195.824 128L213.464 97.9355L211.74 96.9233L194.099 126.987L195.824 128ZM211.142 97.1914C211.366 97.4847 211.594 97.7743 211.826 98.0601L213.378 96.7987C213.159 96.5291 212.944 96.256 212.733 95.9794L211.142 97.1914ZM195.047 127.346L212.8 97.0915L211.075 96.0793L193.323 126.334L195.047 127.346ZM193.673 84.8774L193.185 126.829L195.185 126.852L195.673 84.9006L193.673 84.8774ZM207.992 88.293L194.99 83.9407L194.355 85.8373L207.357 90.1895L207.992 88.293ZM206.252 88.3771C206.411 88.799 206.579 89.217 206.754 89.631L208.596 88.8515C208.431 88.4613 208.273 88.0674 208.122 87.6697L206.252 88.3771ZM196.29 85.4304L206.87 88.9717L207.504 87.0751L196.925 83.5338L196.29 85.4304ZM205.776 82.6586L196.519 83.4861L196.697 85.4781L205.954 84.6506L205.776 82.6586ZM204.673 82.8646C204.741 83.2044 204.813 83.5426 204.891 83.8789L206.84 83.4304C206.767 83.1135 206.698 82.7948 206.635 82.4744L204.673 82.8646ZM194.762 84.647L205.743 83.6655L205.565 81.6735L194.584 82.655L194.762 84.647ZM193.18 48.3985L193.673 83.665L195.673 83.637L195.18 48.3706L193.18 48.3985ZM208.753 61.1769L194.878 47.6681L193.482 49.1011L207.358 62.6099L208.753 61.1769ZM207.613 60.4959C207.452 60.8205 207.296 61.1479 207.146 61.4781L208.965 62.3088C209.107 61.9976 209.254 61.689 209.405 61.383L207.613 60.4959ZM193.871 48.0835L207.812 61.656L209.207 60.223L195.266 46.6504L193.871 48.0835ZM238.636 29.0899L194.205 46.4354L194.932 48.2985L239.364 30.9529L238.636 29.0899ZM238 28.9479V30.0214H240V28.9479H238ZM195.098 47.16L239.364 29.8794L238.636 28.0164L194.371 45.2969L195.098 47.16ZM217.274 1.53199L193.851 45.7605L195.618 46.6965L219.042 2.46801L217.274 1.53199ZM217.026 3H218.158V1H217.026V3ZM216.143 1.53199L192.753 45.6966L194.521 46.6327L217.91 2.46801L216.143 1.53199ZM194.495 45.6519L172.209 8.34023L170.492 9.36583L192.778 46.6774L194.495 45.6519ZM171.491 9.84313L198.71 5.98516L198.43 4.00495L171.21 7.86292L171.491 9.84313ZM198.71 5.98516L198.811 5.97093L198.53 3.99072L198.43 4.00495L198.71 5.98516ZM199.186 5.83804L199.272 5.78583L198.243 4.07139L198.156 4.12361L199.186 5.83804ZM199.272 5.78584L204.148 2.85722L203.118 1.14278L198.243 4.07139L199.272 5.78584ZM201.691 3H203.633V1H201.691V3ZM198.844 4.8764L202.206 2.85722L201.176 1.14278L197.814 3.16195L198.844 4.8764ZM171.317 8.85776L198.47 5.00928L198.189 3.02907L171.036 6.87755L171.317 8.85776ZM171.476 1.78738L170.199 7.65504L172.154 8.08027L173.431 2.21262L171.476 1.78738ZM171.43 3H172.453V1H171.43V3ZM171.108 8.18356L172.407 2.21262L170.453 1.78738L169.154 7.75832L171.108 8.18356ZM143.321 9.46644L170.149 8.97077L170.112 6.97111L143.284 7.46678L143.321 9.46644ZM148.249 1.33897L142.552 7.80558L144.053 9.12764L149.75 2.66103L148.249 1.33897ZM147.667 3H148.999V1H147.667V3ZM146.916 1.33897L141.412 7.5873L142.913 8.90936L148.417 2.66103L146.916 1.33897ZM141.412 7.58731L141.197 7.83062L142.698 9.15267L142.913 8.90936L141.412 7.58731ZM141.197 7.83061L140.75 8.33896L142.25 9.66104L142.698 9.15268L141.197 7.83061ZM142.204 8.28997L141.74 7.83008L140.332 9.25015L140.796 9.71003L142.204 8.28997ZM141.74 7.83009L141.493 7.58457L140.085 9.00463L140.332 9.25014L141.74 7.83009ZM141.493 7.58457L135.146 1.28997L133.738 2.71003L140.085 9.00463L141.493 7.58457ZM239.836 11.2303L233.423 1.45157L231.75 2.54843L238.164 12.3271L239.836 11.2303ZM238 9.95531V11.7787H240V9.95531H238ZM232.946 2.54843L238.164 10.5037L239.836 9.40688L234.619 1.45157L232.946 2.54843ZM232.587 3H233.782V1H232.587V3ZM239.694 111.315L237.512 109.211L236.124 110.651L238.306 112.755L239.694 111.315ZM238 110.646V112.035H240V110.646H238ZM239.694 109.926L239.018 109.274L237.63 110.713L238.306 111.365L239.694 109.926ZM236.755 110.929C237.269 110.962 237.785 110.983 238.304 110.993L238.343 108.994C237.853 108.984 237.366 108.964 236.882 108.933L236.755 110.929ZM10.0419 30.2997L5.04571 41.7266L6.87821 42.5278L11.8744 31.1009L10.0419 30.2997ZM10.1558 30.0391L10.0419 30.2997L11.8744 31.1009L11.9883 30.8404L10.1558 30.0391ZM10.0937 30.7914L10.2594 31.0225L11.8847 29.857L11.719 29.6259L10.0937 30.7914ZM2.18734 19.7656L10.0937 30.7914L11.719 29.6259L3.81266 18.6001L2.18734 19.7656ZM4 20.8989V19.1828H2V20.8989H4ZM10.7406 29.9775L3.81266 20.3161L2.18734 21.4816L9.11529 31.143L10.7406 29.9775ZM5.81953 42.453L10.8442 30.9609L9.0117 30.1597L3.98704 41.6518L5.81953 42.453ZM6.04793 41.1309C5.68627 41.0997 5.32306 41.074 4.95838 41.0539L4.84819 43.0509C5.19224 43.0698 5.53486 43.0941 5.87598 43.1235L6.04793 41.1309ZM4 18.7677V16.9291H2V18.7677H4ZM13.0284 1.45612L2.16084 18.2238L3.83916 19.3116L14.7067 2.54388L13.0284 1.45612ZM12.6759 3H13.8675V1H12.6759V3ZM3.83916 17.473L13.5151 2.54388L11.8367 1.45612L2.16084 16.3852L3.83916 17.473ZM11.4921 1.11389L2.53652 5.79818L3.46348 7.57039L12.4191 2.88611L11.4921 1.11389ZM4 6.68428V5.55575H2V6.68428H4ZM3.46348 6.44185L10.2615 2.88611L9.33454 1.11389L2.53652 4.66964L3.46348 6.44185ZM9.79802 3H11.9556V1H9.79802V3ZM2.86981 113.529L40.266 145.603L41.5681 144.085L4.17187 112.011L2.86981 113.529ZM40.3656 109.655L3.4636 111.771L3.57809 113.768L40.4801 111.652L40.3656 109.655ZM41.9169 144.83L41.4227 110.639L39.4229 110.668L39.9171 144.858L41.9169 144.83ZM42.5189 110.799L59.4863 98.1125L58.2887 96.5108L41.3213 109.197L42.5189 110.799ZM49.3828 111.989L42.3008 109.073L41.5393 110.922L48.6213 113.839L49.3828 111.989ZM58.0428 96.7764L48.1574 112.379L49.8468 113.449L59.7323 97.8469L58.0428 96.7764ZM48.9947 112.911L41.8069 109.951L41.0454 111.8L48.2331 114.76L48.9947 112.911ZM42.8478 142.187L49.5864 114.069L47.6414 113.603L40.9029 141.721L42.8478 142.187ZM40.4262 110.89L40.8755 141.968L42.8753 141.939L42.426 110.861L40.4262 110.89ZM74.9549 146.004L74.8666 146.1L76.339 147.453L76.4273 147.357L74.9549 146.004ZM66.1786 124.802L74.7581 147.04L76.624 146.32L68.0445 124.082L66.1786 124.802ZM43.3733 146.252L67.765 125.199L66.4582 123.685L42.0665 144.738L43.3733 146.252ZM75.6418 145.777L42.7588 144.496L42.681 146.494L75.5639 147.776L75.6418 145.777ZM77.5496 145.941L69.001 123.783L67.1351 124.503L75.6836 146.661L77.5496 145.941ZM76.6857 145.296L76.5623 145.302L76.6708 147.3L76.7941 147.293L76.6857 145.296ZM95.3546 125.059L76.0117 145.609L77.4681 146.98L96.8109 126.43L95.3546 125.059ZM68.011 125.142L96.0257 126.743L96.1398 124.746L68.1251 123.145L68.011 125.142ZM78.2415 147.214L142.008 143.748L141.899 141.751L78.133 145.217L78.2415 147.214ZM96.5889 125.207L77.4591 145.53L78.9154 146.901L98.0453 126.577L96.5889 125.207ZM142.307 141.814L97.6704 124.956L96.9638 126.827L141.6 143.685L142.307 141.814ZM98.8953 126.17L112.038 120.14L111.204 118.322L98.0612 124.353L98.8953 126.17ZM142.639 140.871L98.8315 124.326L98.1249 126.197L141.933 142.742L142.639 140.871ZM111.028 120.036L141.693 142.611L142.879 141.001L112.213 118.426L111.028 120.036ZM146.371 143.511L147.314 143.46L147.205 141.463L146.263 141.514L146.371 143.511ZM156.397 102.333L145.353 142.246L147.281 142.779L158.325 102.866L156.397 102.333ZM193.161 127.727L157.954 101.794L156.768 103.404L191.975 129.337L193.161 127.727ZM147.532 143.458L192.862 129.488L192.273 127.576L146.942 141.546L147.532 143.458ZM146.385 141.977L146.362 142.017L148.112 142.987L148.134 142.946L146.385 141.977ZM156.974 100.892L144.853 86.9976L143.345 88.3124L155.467 102.207L156.974 100.892ZM114.064 118.3L156.569 102.487L155.872 100.612L113.366 116.426L114.064 118.3ZM143.4 86.94L113.016 116.648L114.414 118.078L144.798 88.37L143.4 86.94ZM112.575 118.478L143.41 88.3288L142.012 86.8987L111.176 117.048L112.575 118.478ZM101.428 93.1562L110.941 118.119L112.81 117.407L103.297 92.444L101.428 93.1562ZM142.583 86.6219L102.235 91.8082L102.49 93.7919L142.838 88.6056L142.583 86.6219ZM103.374 92.67L142.61 87.6267L142.355 85.643L103.119 90.6864L103.374 92.67ZM120.933 75.0028L102.591 90.923L103.902 92.4334L122.244 76.5132L120.933 75.0028ZM142.945 85.7478L122.05 74.871L121.127 76.645L142.021 87.5218L142.945 85.7478ZM123.416 76.709L143.64 87.237L144.563 85.463L124.339 74.935L123.416 76.709ZM156.984 77.1126L123.947 74.8244L123.808 76.8196L156.846 79.1078L156.984 77.1126ZM144.642 87.1911L157.456 78.9513L156.374 77.2691L143.561 85.5089L144.642 87.1911ZM157.753 77.5712L145.07 85.727L146.152 87.4092L158.835 79.2535L157.753 77.5712ZM165.259 87.8569L159.147 77.8896L157.442 78.9351L163.554 88.9024L165.259 87.8569ZM145.515 87.5635L164.311 89.3751L164.502 87.3843L145.707 85.5727L145.515 87.5635ZM164.562 90.4432L190.627 127.041L192.256 125.88L166.192 89.283L164.562 90.4432ZM158.588 102.186L166.216 90.4067L164.538 89.3195L156.909 101.099L158.588 102.186ZM192.035 125.655L158.341 100.837L157.155 102.448L190.849 127.266L192.035 125.655ZM169.917 7.97488L142.388 8.4835L142.425 10.4832L169.954 9.97454L169.917 7.97488ZM163.36 51.3788L170.92 9.15094L168.951 8.79849L161.392 51.0264L163.36 51.3788ZM141.429 10.0047L161.475 51.6364L163.277 50.7688L143.231 9.13701L141.429 10.0047ZM141.657 8.82234L141.579 8.90986L143.08 10.2318L143.157 10.1443L141.657 8.82234ZM161.836 50.081L142.513 9.95163L140.711 10.8193L160.034 50.9487L161.836 50.081ZM119.714 12.1403L160.241 51.2345L161.629 49.7951L121.102 10.7009L119.714 12.1403ZM140.572 8.58232L120.317 10.4247L120.498 12.4165L140.754 10.5741L140.572 8.58232ZM141.5 9.00002L141.367 8.86819L139.959 10.2882L140.092 10.42L141.5 9.00002ZM142.253 9.74704L141.5 9L140.092 10.4201L140.845 11.1671L142.253 9.74704ZM140.862 9.72442L140.799 9.79603L142.299 11.1181L142.363 11.0465L140.862 9.72442ZM118.717 12.0887L115.878 65.3883L117.875 65.4946L120.714 12.1951L118.717 12.0887ZM162.32 51.8508L120.409 11.4222L119.021 12.8616L160.931 53.2903L162.32 51.8508ZM117.153 66.4025L161.902 53.5316L161.349 51.6095L116.6 64.4804L117.153 66.4025ZM158.07 53.5934L116.814 65.4594L117.367 67.3815L158.622 55.5154L158.07 53.5934ZM122.186 75.3629L158.824 55.4328L157.868 53.676L121.231 73.606L122.186 75.3629ZM116.223 66.9174L120.841 74.9814L122.576 73.9875L117.958 65.9235L116.223 66.9174ZM123.194 75.7747L157.966 78.1829L158.104 76.1877L123.332 73.7795L123.194 75.7747ZM161.457 52.8623L122.785 73.8987L123.741 75.6555L162.412 54.6192L161.457 52.8623ZM159.021 77.3494L162.921 53.9048L160.948 53.5767L157.048 77.0212L159.021 77.3494ZM161.864 54.1657L158.051 77.0885L160.024 77.4166L163.837 54.4938L161.864 54.1657ZM176.756 77.8754L163.729 53.853L161.971 54.8065L174.998 78.8288L176.756 77.8754ZM158.972 78.2504L175.812 79.35L175.942 77.3542L159.103 76.2547L158.972 78.2504ZM175.349 78.3176L164.287 77.5954L164.157 79.5911L175.218 80.3134L175.349 78.3176ZM173.765 81.5814L175.852 80.1379L174.715 78.493L172.628 79.9365L173.765 81.5814ZM163.987 79.5653L172.962 81.7311L173.431 79.7869L164.457 77.6211L163.987 79.5653ZM172.774 81.1074L166.163 87.4992L167.553 88.937L174.164 82.5452L172.774 81.1074ZM190.997 83.2502L173.607 80.8358L173.332 82.8168L190.722 85.2312L190.997 83.2502ZM167.022 89.2046L191.023 85.2272L190.696 83.2541L166.695 87.2316L167.022 89.2046ZM193.511 83.8013L166.066 88.3494L166.393 90.3225L193.838 85.7744L193.511 83.8013ZM194.181 127.191L194.674 84.7995L192.674 84.7762L192.181 127.167L194.181 127.191ZM165.415 89.9161L192.366 127.759L193.996 126.599L167.044 88.7559L165.415 89.9161ZM169.532 11.5623L174.362 40.5103L176.334 40.1812L171.504 11.2332L169.532 11.5623ZM164.335 51.6097L171.502 11.574L169.534 11.2215L162.366 51.2573L164.335 51.6097ZM174.669 39.6114L162.672 50.6991L164.029 52.1679L176.027 41.0802L174.669 39.6114ZM162.538 53.7544L175.502 77.6595L177.26 76.7061L164.296 52.801L162.538 53.7544ZM178.236 51.6549L163.375 52.2786L163.459 54.2769L178.32 53.6531L178.236 51.6549ZM177.378 77.2599L179.275 52.7311L177.281 52.5769L175.384 77.1057L177.378 77.2599ZM178.273 54.4606L192.338 83.821L194.141 82.957L180.076 53.5966L178.273 54.4606ZM178.275 78.6253L180.172 54.1057L178.178 53.9515L176.281 78.4711L178.275 78.6253ZM193.53 82.432L177.568 77.5912L176.988 79.5051L192.949 84.3459L193.53 82.432ZM176.266 78.6362L174.068 80.1563L175.206 81.8012L177.403 80.2811L176.266 78.6362ZM188.224 81.868L177.125 78.5017L176.544 80.4156L187.644 83.7819L188.224 81.868ZM174.499 81.9693L187.797 83.8155L188.072 81.8345L174.774 79.9883L174.499 81.9693ZM194.649 81.9157L194.173 47.86L192.173 47.888L192.649 81.9436L194.649 81.9157ZM178.614 52.858L192.747 82.3617L194.551 81.4976L180.418 51.9939L178.614 52.858ZM192.857 46.9253L179.199 51.4773L179.832 53.3747L193.489 48.8227L192.857 46.9253ZM179.489 52.4349L192.48 48.1049L191.848 46.2076L178.856 50.5375L179.489 52.4349ZM175.635 41.5779L178.203 51.7314L180.142 51.241L177.574 41.0875L175.635 41.5779ZM192.514 46.2197L176.955 40.3961L176.254 42.2692L191.813 48.0928L192.514 46.2197ZM175.981 41.0992L192.152 47.1518L192.853 45.2787L176.682 39.2261L175.981 41.0992ZM170.478 11.1588L175.345 40.3273L177.318 39.9981L172.451 10.8296L170.478 11.1588ZM193.361 45.7024L172.323 10.4814L170.606 11.507L191.644 46.728L193.361 45.7024ZM174.638 41.7131L177.215 51.9023L179.154 51.4119L176.577 41.2227L174.638 41.7131ZM164.613 52.9895L176.286 42.2023L174.929 40.7335L163.256 51.5207L164.613 52.9895ZM178.142 50.658L163.893 51.256L163.977 53.2543L178.226 52.6562L178.142 50.658ZM166.153 88.9L172.99 82.2892L171.6 80.8513L164.763 87.4621L166.153 88.9ZM158.66 79.0081L164.605 88.7038L166.31 87.6583L160.365 77.9626L158.66 79.0081ZM172.53 80.5982L159.747 77.5132L159.277 79.4574L172.061 82.5424L172.53 80.5982ZM121.747 74.5523L117.213 66.6348L115.478 67.6287L120.012 75.5462L121.747 74.5523ZM104.154 90.8907L121.535 75.8044L120.224 74.294L102.843 89.3803L104.154 90.8907ZM115.472 66.6441L102.625 89.6479L104.371 90.6231L117.218 67.6193L115.472 66.6441ZM102.567 91.8026L116.538 66.7863L114.792 65.8112L100.821 90.8274L102.567 91.8026ZM77.295 44.6542L100.799 91.7615L102.589 90.8686L79.0846 43.7613L77.295 44.6542ZM116.173 65.4373L78.6976 43.3463L77.682 45.0692L115.157 67.1602L116.173 65.4373ZM77.4928 43.797L110.435 63.2154L111.45 61.4925L78.5085 42.074L77.4928 43.797ZM83.0116 39.0593L77.5213 42.0578L78.48 43.8131L83.9703 40.8146L83.0116 39.0593ZM111.575 61.5794L84.1235 39.1624L82.8584 40.7115L110.31 63.1285L111.575 61.5794ZM84.8776 40.5601L101.282 36.6247L100.816 34.6799L84.411 38.6153L84.8776 40.5601ZM115.538 63.5249L85.2768 38.8131L84.0118 40.3622L114.273 65.074L115.538 63.5249ZM100.149 36.0877L114.006 64.7349L115.806 63.864L101.949 35.2168L100.149 36.0877ZM116.943 64.2024L119.686 12.6975L117.688 12.5911L114.945 64.096L116.943 64.2024ZM101.006 35.5633L115.044 64.5846L116.844 63.7138L102.807 34.6924L101.006 35.5633ZM117.886 12.0462L101.105 34.5297L102.708 35.726L119.488 13.2424L117.886 12.0462ZM75.2029 46.9908L60.4463 94.62L62.3567 95.2119L77.1133 47.5827L75.2029 46.9908ZM73.3877 97.4728L77.1553 47.3617L75.1609 47.2118L71.3933 97.3229L73.3877 97.4728ZM61.1812 95.8914L72.1702 98.3733L72.6108 96.4224L61.6218 93.9405L61.1812 95.8914ZM72.4826 98.639L74.1104 105.367L76.0543 104.896L74.4265 98.1686L72.4826 98.639ZM97.9764 92.5967L73.2629 97.4223L73.6462 99.3853L98.3597 94.5596L97.9764 92.5967ZM75.5299 106.026L98.6156 94.4724L97.7205 92.6839L74.6348 104.237L75.5299 106.026ZM100.552 92.3852L75.6115 104.867L76.5066 106.655L101.447 94.1737L100.552 92.3852ZM98.466 112.891L101.983 93.4576L100.015 93.1014L96.498 112.535L98.466 112.891ZM75.7504 106.712L97.1734 113.664L97.7907 111.762L76.3677 104.81L75.7504 106.712ZM97.6593 112.771L77.2428 106.145L76.6254 108.048L97.042 114.673L97.6593 112.771ZM97.7395 124.321L98.349 113.78L96.3523 113.664L95.7428 124.205L97.7395 124.321ZM76.2791 107.852L96.0862 125.019L97.3961 123.507L77.589 106.341L76.2791 107.852ZM98.1459 125.414L110.807 119.604L109.973 117.787L97.3118 123.596L98.1459 125.414ZM97.3335 114.019L96.7305 124.447L98.7272 124.563L99.3301 114.135L97.3335 114.019ZM110.748 117.762L98.6895 113.143L97.9741 115.011L110.033 119.629L110.748 117.762ZM99.4219 113.225L102.825 94.4191L100.857 94.063L97.4539 112.869L99.4219 113.225ZM111.172 116.853L98.7956 112.113L98.0802 113.981L110.457 118.721L111.172 116.853ZM100.907 94.5972L109.88 118.143L111.749 117.431L102.776 93.885L100.907 94.5972ZM112.129 119.605L144.434 143.388L145.62 141.777L113.314 117.994L112.129 119.605ZM155.981 101.639L112.373 117.863L113.07 119.737L156.678 103.513L155.981 101.639ZM146.227 142.836L157.294 102.843L155.366 102.309L144.3 142.303L146.227 142.836ZM145.082 143.581L145.318 143.568L145.209 141.571L144.973 141.584L145.082 143.581ZM101.823 91.5738L78.2453 44.319L76.4557 45.2119L100.034 92.4667L101.823 91.5738ZM73.585 98.3783L101.12 93.0017L100.737 91.0388L73.2017 96.4154L73.585 98.3783ZM76.3533 44.6905L72.3962 97.3219L74.3906 97.4718L78.3477 44.8405L76.3533 44.6905ZM77.6856 43.1076L83.2946 40.0441L82.3359 38.2889L76.7269 41.3523L77.6856 43.1076ZM58.3011 6.0565L76.3089 42.6713L78.1036 41.7886L60.0957 5.17384L58.3011 6.0565ZM83.633 38.5909L60.0161 5.03957L58.3807 6.19078L81.9975 39.7421L83.633 38.5909ZM95.8028 123.725L68.1135 122.143L67.9994 124.139L95.6886 125.722L95.8028 123.725ZM74.2838 107.446L95.0908 125.479L96.4006 123.968L75.5937 105.935L74.2838 107.446ZM68.9789 123.527L75.8613 107.076L74.0162 106.304L67.1339 122.755L68.9789 123.527ZM74.9007 104.381L73.4046 98.1974L71.4607 98.6677L72.9568 104.851L74.9007 104.381ZM62.3082 97.0797L73.3255 105.414L74.5321 103.819L63.5148 95.4846L62.3082 97.0797ZM72.653 97.4572L63.1318 95.3067L62.6912 97.2576L72.2123 99.408L72.653 97.4572ZM60.0507 95.4758L49.4948 112.136L51.1842 113.207L61.7402 96.5462L60.0507 95.4758ZM74.2603 104.867L61.4987 95.2135L60.2922 96.8085L73.0537 106.462L74.2603 104.867ZM50.6273 113.629L73.9448 106.622L73.3692 104.707L50.0517 111.714L50.6273 113.629ZM73.5866 105.686L50.1903 112.716L50.7659 114.632L74.1622 107.601L73.5866 105.686ZM67.9993 123.277L74.7969 107.029L72.9519 106.258L66.1543 122.506L67.9993 123.277ZM49.9927 114.548L66.5913 123.766L67.5623 122.017L50.9636 112.8L49.9927 114.548ZM65.8002 122.932L41.6274 143.796L42.9342 145.31L67.107 124.446L65.8002 122.932ZM49.0471 115.167L65.9681 124.563L66.9391 122.815L50.0181 113.419L49.0471 115.167ZM43.2533 144.786L50.5051 114.526L48.5602 114.06L41.3084 144.32L43.2533 144.786ZM147.935 144.298L175.219 146.975L175.414 144.984L148.131 142.308L147.935 144.298ZM191.546 128.847L147.739 142.347L148.328 144.259L192.135 130.758L191.546 128.847ZM176.016 146.694L192.54 130.517L191.141 129.088L174.617 145.265L176.016 146.694ZM163.651 88.8488L156.174 100.394L157.853 101.481L165.33 89.936L163.651 88.8488ZM145.235 88.5411L164.394 90.3878L164.586 88.397L145.427 86.5504L145.235 88.5411ZM157.767 100.28L146.084 86.8884L144.577 88.2031L156.26 101.595L157.767 100.28Z" fill="white" mask="url(#path-3-outside-2)"/>
</svg>
