<svg width="240" height="152" viewBox="0 0 240 152" fill="none" xmlns="http://www.w3.org/2000/svg">
<mask id="path-1-outside-1" maskUnits="userSpaceOnUse" x="0" y="0" width="240" height="152" fill="black">
<rect fill="white" width="240" height="152"/>
<path fill-rule="evenodd" clip-rule="evenodd" d="M2 7C2 4.23858 4.23857 2 6.99999 2H233C235.761 2 238 4.23858 238 7V37C238 39.7614 235.748 41.9614 233.016 42.3627C216.601 44.7738 204 58.9153 204 76C204 93.0847 216.601 107.226 233.016 109.637C235.748 110.039 238 112.239 238 115V145C238 147.761 235.761 150 233 150H7C4.23858 150 2 147.761 2 145V115C2 112.239 4.25158 110.039 6.98369 109.637C23.3988 107.226 36 93.0847 36 76C36 58.9153 23.3988 44.7738 6.98369 42.3627C4.25158 41.9614 2 39.7614 2 37V7Z"/>
</mask>
<path d="M6.98369 42.3627L6.69304 44.3414L6.98369 42.3627ZM6.98369 109.637L6.69304 107.659L6.98369 109.637ZM233.016 109.637L233.307 107.659L233.016 109.637ZM233.016 42.3627L232.726 40.3839L233.016 42.3627ZM233 0H6.99999V4H233V0ZM240 37V7H236V37H240ZM206 76C206 59.922 217.859 46.6104 233.307 44.3414L232.726 40.3839C215.343 42.9371 202 57.9086 202 76H206ZM233.307 107.659C217.859 105.39 206 92.078 206 76H202C202 94.0914 215.343 109.063 232.726 111.616L233.307 107.659ZM240 145V115H236V145H240ZM7 152H233V148H7V152ZM0 115V145H4V115H0ZM34 76C34 92.078 22.1407 105.39 6.69304 107.659L7.27434 111.616C24.6569 109.063 38 94.0914 38 76H34ZM6.69304 44.3414C22.1407 46.6104 34 59.922 34 76H38C38 57.9086 24.6569 42.9371 7.27434 40.3839L6.69304 44.3414ZM0 7V37H4V7H0ZM7.27434 40.3839C5.34175 40.1 4 38.5954 4 37H0C0 40.9274 3.16142 43.8227 6.69304 44.3414L7.27434 40.3839ZM4 115C4 113.405 5.34175 111.9 7.27434 111.616L6.69304 107.659C3.16142 108.177 0 111.073 0 115H4ZM7 148C5.34315 148 4 146.657 4 145H0C0 148.866 3.13401 152 7 152V148ZM232.726 111.616C234.658 111.9 236 113.405 236 115H240C240 111.073 236.839 108.177 233.307 107.659L232.726 111.616ZM236 37C236 38.5954 234.658 40.1 232.726 40.3839L233.307 44.3414C236.839 43.8227 240 40.9274 240 37H236ZM6.99999 0C3.134 0 0 3.13401 0 7H4C4 5.34314 5.34314 4 6.99999 4V0ZM236 145C236 146.657 234.657 148 233 148V152C236.866 152 240 148.866 240 145H236ZM233 4C234.657 4 236 5.34315 236 7H240C240 3.13401 236.866 0 233 0V4Z" fill="url(#paint0_linear)" mask="url(#path-1-outside-1)"/>
<path fill-rule="evenodd" clip-rule="evenodd" d="M133.442 2H132.022L138.735 8.65844L118.894 10.4633L120.563 2H119.544L117.988 9.88792L111.492 2H110.196L117.639 11.0369L100.818 33.5738L100.7 2H99.7001L99.8225 34.6783L83.3212 38.6368L96.139 2H95.0796L82.5272 37.878L68.8965 2H67.8268L80.6675 35.7986L56.8765 2H55.306L74.6649 41.3619L37.7982 15.0842L53.4443 2H51.8855L37.4534 14.069L37.132 2H36.1317L36.4561 14.1867L17.3928 2H15.5362L36.2105 15.2166L10.6518 43.1106C11.0139 43.2056 11.3737 43.3064 11.731 43.413L36.0611 16.8599L27.514 53.5264C27.7883 53.8375 28.0569 54.1536 28.3198 54.4747L37.2986 15.9561L75.1168 42.912L35.5093 70.212C35.5717 70.5759 35.6283 70.9417 35.6791 71.3095L75.0831 44.1498L59.4459 94.6212L34.8264 84.8885C34.7389 85.2125 34.6467 85.5345 34.5499 85.8546L58.7473 95.4203L40.0568 109.395L30.7791 94.1125C30.5819 94.4253 30.3796 94.7346 30.1726 95.0404L39.0562 109.673L2.20302 111.786L3.36429 109.973C2.96452 109.989 2.56298 109.998 2.15979 110L2 110.249V114.586L22.9379 150H24.0996L3.22221 114.689L39.6298 145.915L34.0707 150H35.7595L39.7849 147.042L39.3969 150H40.4054L40.8694 146.463L73.7148 147.742L71.6396 150H72.9979L75.0261 147.794L75.4701 147.31L76.1938 147.271L143.272 143.625L143.33 143.622L143.723 143.6L144.509 143.558L144.264 144L143.937 144.59L140.939 150H142.083L145.329 144.141L174.193 146.972L175.909 150H177.059L176.501 149.017L177.572 150H179.05L176.176 147.361L188.826 150H193.722L175.519 146.202L192.264 129.809L194.164 150H195.169L193.223 129.325L233.843 136.551L195.286 150H198.322L232.91 137.935L221.136 150H222.533L235.029 137.196L235.39 136.826L235.812 136.394L236.305 136.251L238 135.762V134.721L236.243 135.228L234.724 109.844C234.386 109.812 234.05 109.775 233.715 109.733L235.26 135.528L235.097 135.695L235.044 135.749L194.216 128.486L231.598 109.398C231.078 109.299 230.562 109.188 230.051 109.066L193.961 127.494L211.602 97.4294C211.376 97.1517 211.155 96.8703 210.938 96.5854L193.185 126.84L193.673 84.889L206.675 89.2412C206.505 88.8392 206.342 88.4332 206.187 88.0234L195.608 84.4821L204.865 83.6546C204.79 83.328 204.72 82.9996 204.654 82.6695L193.673 83.651L193.18 48.3846L207.055 61.8934C207.202 61.5727 207.353 61.2547 207.509 60.9395L193.568 47.367L238 30.0214V28.9479L193.735 46.2285L217.158 2H216.026L192.637 46.1646L170.35 8.85303L197.57 4.99505L197.671 4.98082L197.757 4.92861L202.633 2H200.691L197.329 4.01918L170.177 7.86765L171.453 2H170.43L169.131 7.97094L142.303 8.46661L147.999 2H146.667L141.162 8.24833L140.948 8.49164L140.5 9L140.036 8.54012L139.789 8.2946L133.442 2ZM231.587 2L238 11.7787V9.95531L232.782 2H231.587ZM235.818 109.931L238 112.035V110.646L237.324 109.993C236.819 109.984 236.317 109.963 235.818 109.931ZM4.96196 42.1272L9.95812 30.7003L10.0721 30.4397L9.90633 30.2086L2 19.1828V20.8989L8.92795 30.5603L3.90328 42.0524C4.25765 42.0719 4.61057 42.0969 4.96196 42.1272ZM2 16.9291V18.7677L12.8675 2H11.6759L2 16.9291ZM10.9556 2L2 6.68428V5.55575L8.79802 2H10.9556ZM39.917 144.844L2.52084 112.77L39.4228 110.654L39.917 144.844ZM57.8875 97.3117L40.9201 109.998L48.0021 112.914L57.8875 97.3117ZM40.4261 110.876L47.6139 113.836L40.8754 141.954L40.4261 110.876ZM74.6028 146.776L74.6911 146.68L66.1116 124.442L41.7199 145.495L74.6028 146.776ZM67.0681 124.143L75.6166 146.301L75.7399 146.294L95.0827 125.744L67.0681 124.143ZM140.954 142.75L77.1873 146.216L96.3171 125.892L140.954 142.75ZM110.621 119.231L97.4782 125.262L141.286 141.806L110.621 119.231ZM146.26 142.461L145.317 142.512L156.361 102.599L191.568 128.532L146.237 142.502L146.26 142.461ZM143.099 87.655L155.22 101.55L112.715 117.363L143.099 87.655ZM141.711 87.6137L110.875 117.763L101.362 92.8001L141.711 87.6137ZM141.483 86.6348L102.246 91.6782L120.589 75.758L141.483 86.6348ZM143.101 86.35L122.877 75.822L155.915 78.1102L143.101 86.35ZM144.611 86.5681L157.294 78.4124L163.407 88.3797L144.611 86.5681ZM190.442 126.46L164.377 89.8631L156.748 101.643L190.442 126.46ZM141.407 9.48333L168.936 8.97471L161.376 51.2026L141.33 9.57084L141.407 9.48333ZM140.612 10.3855L159.935 50.5148L119.408 11.4206L139.663 9.57821L139.796 9.71003L140.549 10.4571L140.612 10.3855ZM115.877 65.4414L118.715 12.1419L160.626 52.5706L115.877 65.4414ZM116.09 66.4205L157.346 54.5544L120.709 74.4844L116.09 66.4205ZM157.035 77.1853L122.263 74.7771L160.934 53.7407L157.035 77.1853ZM158.037 77.2526L161.85 54.3298L174.877 78.3521L158.037 77.2526ZM163.222 78.5932L174.284 79.3155L172.197 80.759L163.222 78.5932ZM165.858 88.2181L172.469 81.8263L189.859 84.2407L165.858 88.2181ZM165.229 89.336L192.674 84.7878L192.181 127.179L165.229 89.336ZM174.348 40.3458L169.518 11.3977L162.35 51.4335L174.348 40.3458ZM175.381 77.1828L162.417 53.2777L177.278 52.654L175.381 77.1828ZM192.239 83.389L178.175 54.0286L176.278 78.5482L192.239 83.389ZM173.637 80.9788L175.835 79.4586L186.934 82.825L173.637 80.9788ZM192.173 47.874L192.649 81.9297L178.516 52.426L192.173 47.874ZM191.164 47.1562L178.173 51.4862L175.605 41.3327L191.164 47.1562ZM191.502 46.2152L175.331 40.1627L170.464 10.9942L191.502 46.2152ZM177.184 51.6571L174.607 41.4679L162.935 52.2551L177.184 51.6571ZM171.295 81.5703L164.458 88.181L158.512 78.4853L171.295 81.5703ZM115.345 67.1317L119.88 75.0492L102.498 90.1355L115.345 67.1317ZM114.665 66.2988L100.694 91.315L77.1898 44.2078L114.665 66.2988ZM109.942 62.3539L77.0007 42.9355L82.491 39.9369L109.942 62.3539ZM100.049 35.6523L83.6443 39.5877L113.906 64.2994L100.049 35.6523ZM117.687 12.6443L114.944 64.1492L100.906 35.1278L117.687 12.6443ZM60.4015 94.9159L75.1581 47.2867L71.3905 97.3979L60.4015 94.9159ZM74.0823 105.132L72.4545 98.4038L97.168 93.5781L74.0823 105.132ZM75.0591 105.761L99.9992 93.2795L96.482 112.713L75.0591 105.761ZM75.9341 107.096L96.3507 113.722L95.7412 124.263L75.9341 107.096ZM109.39 118.695L96.7288 124.505L97.3318 114.077L109.39 118.695ZM100.841 94.2411L97.4379 113.047L109.814 117.787L100.841 94.2411ZM144.027 142.582L111.721 118.8L155.33 102.576L144.263 142.57L144.027 142.582ZM76.3505 44.7655L99.9284 92.0203L72.3934 97.3969L76.3505 44.7655ZM81.8153 39.1665L76.2063 42.2299L58.1984 5.61517L81.8153 39.1665ZM67.0564 123.141L94.7457 124.723L73.9388 106.69L67.0564 123.141ZM71.4326 98.4326L72.9288 104.616L61.9115 96.2822L71.4326 98.4326ZM49.3395 112.672L59.8954 96.011L72.657 105.665L49.3395 112.672ZM49.4781 113.674L72.8744 106.643L66.0768 122.891L49.4781 113.674ZM41.2808 144.553L65.4536 123.689L48.5326 114.293L41.2808 144.553ZM174.317 145.98L147.033 143.303L190.84 129.803L174.317 145.98ZM156.014 100.938L163.49 89.3924L144.331 87.5457L156.014 100.938Z" fill="url(#paint1_linear)"/>
<defs>
<linearGradient id="paint0_linear" x1="2" y1="76" x2="238" y2="76" gradientUnits="userSpaceOnUse">
<stop stop-color="#D25778"/>
<stop offset="0.348958" stop-color="#EC585C"/>
<stop offset="0.692708" stop-color="#E7D155"/>
<stop offset="1" stop-color="#56A8C6"/>
</linearGradient>
<linearGradient id="paint1_linear" x1="2" y1="76" x2="238" y2="76" gradientUnits="userSpaceOnUse">
<stop stop-color="#D25778"/>
<stop offset="0.348958" stop-color="#EC585C"/>
<stop offset="0.692708" stop-color="#E7D155"/>
<stop offset="1" stop-color="#56A8C6"/>
</linearGradient>
</defs>
</svg>
