<svg width="415" height="72" viewBox="0 0 415 72" fill="none" xmlns="http://www.w3.org/2000/svg">
<path d="M111.976 18.7361C111.976 15.0984 114.002 13.2795 118.055 13.2795C122.108 13.2795 124.134 15.0984 124.134 18.7361C124.134 20.4695 123.622 21.8245 122.596 22.801C121.595 23.7532 120.082 24.2292 118.055 24.2292C114.002 24.2292 111.976 22.3982 111.976 18.7361ZM123.622 70.262H112.452V39.5L123.622 29.3196V70.262Z" fill="black" fill-opacity="0.86"/>
<path d="M152.003 70.9944C139.259 70.9944 132.887 63.9998 132.887 50.0105C132.887 43.0525 134.62 37.7424 138.087 34.0803C141.554 30.3938 146.522 28.5505 152.992 28.5505C157.728 28.5505 165.736 31.3337 165.736 31.3337L157.533 38.2551C157.533 38.2551 154.505 37.5593 152.992 37.5593C147.181 37.5593 144.276 41.6853 144.276 49.9373C144.276 57.9451 147.181 61.949 152.992 61.949C155.14 61.949 157.13 61.6682 158.961 61.1067C160.792 60.5208 162.623 59.6174 164.454 58.3967V67.9548C162.647 69.1023 160.816 69.8958 158.961 70.3352C157.13 70.7747 154.811 70.9944 152.003 70.9944Z" fill="black" fill-opacity="0.86"/>
<path d="M185.145 46.5L189.576 41.7708L201.039 29.3196H213.636L197.376 47.0808L214.625 70.262H201.734L189.942 53.6726L185.145 57.5178V70.262H173.976V23L185.145 13.2795V38.6946V46.5Z" fill="black" fill-opacity="0.86"/>
<path d="M235.446 36.4973C233.078 36.4973 231.222 37.2542 229.879 38.7678C228.537 40.2571 227.768 42.3811 227.572 45.1399H243.246C243.197 42.3811 242.477 40.2571 241.085 38.7678C239.694 37.2542 237.814 36.4973 235.446 36.4973ZM237.021 70.9944C230.429 70.9944 225.277 69.1755 221.566 65.5378C217.855 61.9001 216 56.7488 216 50.0837C216 43.2234 217.709 37.9255 221.127 34.1902C224.569 30.4304 229.318 28.5505 235.373 28.5505C241.159 28.5505 245.663 30.1985 248.886 33.4944C252.108 36.7903 253.72 41.3435 253.72 47.1541V52.574H227.316C227.438 55.7478 228.378 58.2258 230.136 60.0081C231.894 61.7903 234.359 62.6814 237.533 62.6814C239.999 62.6814 242.331 62.425 244.528 61.9124C246.725 61.3997 249.02 60.5818 251.413 59.4587V68.1013C249.459 69.0779 247.372 69.7981 245.15 70.262C242.929 70.7502 240.219 70.9944 237.021 70.9944Z" fill="black" fill-opacity="0.86"/>
<path d="M316.56 46.6101H325.289V68.447C322.581 69.3305 320.026 69.9451 317.625 70.2908C315.244 70.6557 312.805 70.8381 310.308 70.8381C303.951 70.8381 299.092 68.9752 295.731 65.2493C292.389 61.5042 290.718 56.1361 290.718 49.1453C290.718 42.3464 292.658 37.0457 296.538 33.2429C300.436 29.4402 305.833 27.5388 312.728 27.5388C317.049 27.5388 325.231 30.1316 325.231 30.1316L318.693 35.8533C318.693 35.8533 314.726 34.9714 312.67 34.9714C308.81 34.9714 305.718 36.2678 303.394 38.8606C301.07 41.4534 299.908 44.9392 299.908 49.3181C299.908 53.8891 300.84 57.3845 302.703 59.8044C304.585 62.2052 307.312 63.4055 310.884 63.4055C312.747 63.4055 314.639 63.2135 316.56 62.8293V54.0427H308.58L316.56 46.6101Z" fill="black" fill-opacity="0.86"/>
<path d="M351.558 36.4973C349.19 36.4973 347.334 37.2542 345.992 38.7678C344.649 40.2571 343.88 42.3811 343.685 45.1399H359.358C359.31 42.3811 358.589 40.2571 357.198 38.7678C355.806 37.2542 353.926 36.4973 351.558 36.4973ZM353.133 70.9944C346.541 70.9944 341.39 69.1755 337.679 65.5378C333.968 61.9001 332.112 56.7488 332.112 50.0837C332.112 43.2234 333.821 37.9255 337.239 34.1902C340.682 30.4304 345.43 28.5505 351.485 28.5505C357.271 28.5505 361.775 30.1985 364.998 33.4944C368.221 36.7903 369.832 41.3435 369.832 47.1541V52.574H343.428C343.55 55.7478 344.49 58.2258 346.248 60.0081C348.006 61.7903 350.472 62.6814 353.646 62.6814C356.111 62.6814 358.443 62.425 360.64 61.9124C362.837 61.3997 365.132 60.5818 367.525 59.4587V68.1013C365.572 69.0779 363.484 69.7981 361.263 70.262C359.041 70.7502 356.331 70.9944 353.133 70.9944Z" fill="black" fill-opacity="0.86"/>
<path d="M415 70.262H403.831V46.3484C403.831 43.3943 403.306 41.1848 402.256 39.72C401.206 38.2307 399.534 37.4861 397.239 37.4861C394.114 37.4861 391.855 38.5359 390.464 40.6355C389.072 42.7107 388.376 46.1653 388.376 50.9993V70.262H377.207V38.7678L387.864 29.3196V34.5564C389.109 32.5789 390.818 31.0896 392.991 30.0886C395.188 29.0632 397.678 28.5505 400.461 28.5505C405.222 28.5505 408.835 29.8445 411.301 32.4324C413.767 34.9958 415 38.7068 415 43.5652V70.262Z" fill="black" fill-opacity="0.86"/>
<path d="M97.04 62.7537C98.9932 62.7537 101.337 62.3264 104.071 61.4719V69.7849C101.288 71.03 97.8701 71.6526 93.8174 71.6526C89.3496 71.6526 86.0903 70.5295 84.0396 68.2834C82.0132 66.0129 81 62.6194 81 58.1028V38.364V31L92.1694 21.262V29.9778H103.632L94.5 38.364H92.1694V58.1028C92.1694 59.6897 92.6089 60.8616 93.4878 61.6184C94.3911 62.3752 95.5752 62.7537 97.04 62.7537Z" fill="black" fill-opacity="0.86"/>
<path d="M278.54 62.7537C280.493 62.7537 282.837 62.3264 285.571 61.4719V69.7849C282.788 71.03 279.37 71.6526 275.317 71.6526C270.85 71.6526 267.59 70.5295 265.54 68.2834C263.513 66.0129 262.5 62.6194 262.5 58.1028V38.364V31L273.669 21.262V29.9778H285.132L275.5 38.364H273.669V58.1028C273.669 59.6897 274.109 60.8616 274.988 61.6184C275.891 62.3752 277.075 62.7537 278.54 62.7537Z" fill="black" fill-opacity="0.86"/>
<path fill-rule="evenodd" clip-rule="evenodd" d="M1.95301 40.3515L44.9192 2.07002C45.9978 1.10901 47.6512 1.20434 48.6123 2.28296L53.0362 7.24824C54.0168 8.34885 53.8289 9.92444 53.0687 10.9619C50.864 13.9709 50.9793 18.2116 53.5603 21.1085C56.1414 24.0054 60.3407 24.6073 63.5831 22.7631C64.7011 22.1272 66.2879 22.1216 67.2685 23.2222L71.6924 28.1875C72.6534 29.2661 72.558 30.9196 71.4794 31.8806L28.5133 70.1621C27.4346 71.1231 25.7812 71.0277 24.8202 69.9491L20.3963 64.9838C19.4157 63.8832 19.6036 62.3076 20.3638 61.2701C22.5684 58.2611 22.4532 54.0205 19.8721 51.1236C17.2911 48.2267 13.0918 47.6248 9.84933 49.469C8.73132 50.1049 7.14458 50.1105 6.16397 49.0098L1.74007 44.0446C0.779055 42.9659 0.874389 41.3125 1.95301 40.3515ZM2.45017 40.9095C1.67973 41.5959 1.61163 42.777 2.29807 43.5474L6.72198 48.5127C7.40841 49.2831 8.5829 49.3295 9.47984 48.8194C13.0224 46.8045 17.6097 47.4609 20.4301 50.6264C23.2505 53.792 23.3753 58.4244 20.9666 61.7118C20.3567 62.5442 20.2679 63.7162 20.9543 64.4867L25.3782 69.4519C26.0646 70.2224 27.2457 70.2905 28.0161 69.604L70.9823 31.3226C71.7527 30.6361 71.8208 29.4551 71.1344 28.6847L66.7105 23.7194C66.024 22.949 64.8496 22.9025 63.9526 23.4127C60.4101 25.4276 55.8227 24.7712 53.0023 21.6057C50.1819 18.4401 50.0571 13.8077 52.4659 10.5202C53.0757 9.68788 53.1646 8.51584 52.4782 7.7454L48.0543 2.78012C47.3678 2.00968 46.1868 1.94158 45.4163 2.62802L2.45017 40.9095Z" fill="url(#paint0_linear)"/>
<path fill-rule="evenodd" clip-rule="evenodd" d="M26.5393 19.4468L26.1431 19.7998L28.5398 19.928L25.1911 23.5061L24.0857 21.6328L23.8014 21.8862L24.7953 23.5708L22.3387 23.1894L21.9773 23.5114L24.9835 23.9781L25.5968 31.0388L20.2338 25.0647L19.9548 25.3133L25.5935 31.5945L23.1634 35.0896L19.3521 25.8504L19.0565 26.1137L22.7533 35.0753L14.0707 30.5559L13.7722 30.8218L21.7175 34.9574L11.7467 32.6265L11.3428 32.9864L21.7123 37.1994L10.3231 38.4406L11.0956 33.2066L10.6606 33.5941L9.9745 38.2431L7.90915 36.0456L7.63005 36.2943L9.72555 38.5238L4.11853 39.4229L3.60054 39.8845L9.91301 38.8722L9.77664 48.658C9.90095 48.5935 10.0264 48.5322 10.1529 48.474L10.2798 39.3678L14.8333 47.7269C14.9873 47.7443 15.1409 47.7658 15.2938 47.7913L10.4004 38.8081L22.2237 37.5195L19.2859 49.55C19.3943 49.6351 19.501 49.7232 19.6061 49.814L22.522 37.8733L28.1151 50.1542L21.7121 52.5012C21.769 52.613 21.8233 52.7258 21.8751 52.8394L28.1188 50.5508L26.9419 56.3273L22.5359 54.977C22.5596 55.1132 22.5801 55.2498 22.5974 55.3867L26.732 56.6538L20.0979 63.2836L20.0211 62.8022C19.9207 62.9006 19.8174 62.9971 19.7113 63.0916L20.5781 64.0645L30.6311 67.2741L30.9552 66.9853L21.1038 63.84L33.1404 63.613L32.7671 65.371L33.2382 64.9512L33.4639 63.8888L33.8287 64.4251L34.1101 64.1744L33.6224 63.4576L40.0186 58.1909L40.0073 58.9202L40.3862 58.5826L40.3971 57.8792L40.4009 57.634L40.5931 57.4432L52.8096 45.3068L52.8251 45.2914L52.9295 45.1877L53.1381 44.9805L53.1796 45.1647L53.2351 45.4108L53.5588 46.8462L53.8778 46.562L53.5118 44.9392L59.4928 40.5783L60.29 40.849L61.0108 40.2067L60.1426 40.1936L62.6349 38.7597L64.8136 36.8186L69.1762 28.971L68.9887 33.0987L69.3785 32.7514L69.5836 28.2383L69.5924 28.0452L69.6026 27.8195L69.7046 27.6574L69.9176 27.319L69.6589 27.0286L69.4332 27.3872L64.8517 22.8259C64.7499 22.9016 64.6468 22.9747 64.5426 23.0454L69.2333 27.7155L69.2293 27.8025L69.2281 27.8307L60.2866 33.3343L64.2024 23.265C64.0334 23.3687 63.8617 23.4661 63.6878 23.5573L59.9687 33.1208L58.2379 24.4567C58.1058 24.4362 57.974 24.4128 57.8428 24.3863L59.5897 33.1315L52.6299 25.1345L55.8773 23.7432C55.7294 23.6746 55.583 23.6018 55.4384 23.5247L53.0685 24.54L54.5393 22.9734C54.4368 22.9017 54.3355 22.8276 54.2355 22.751L52.3222 24.789L46.2691 18.1836L51.1759 18.4006C51.1362 18.275 51.0993 18.1486 51.0654 18.0217L46.1245 17.8031L51.6925 6.86358L51.4256 6.56407L45.8879 17.4441L42.8185 4.94252L42.5028 5.22381L45.5658 17.6992L34.9779 14.3711L39.5335 8.98653L39.558 8.9576L39.5693 8.92143L40.0368 7.42091L39.495 7.90364L39.2238 8.7741L34.6845 14.1393L33.9526 12.8417L33.6671 13.0961L34.4184 14.4281L29.4873 18.9877L29.4752 16.831L29.1034 17.1623L29.1149 19.2103L29.1155 19.3315L29.117 19.5847L28.8733 19.5716L28.7432 19.5647L26.5393 19.4468ZM45.517 2.53829L48.5697 3.3586L48.1164 2.84986L45.8506 2.24101L45.517 2.53829ZM64.9626 22.7421L65.8717 22.7779L65.5264 22.3904L65.3984 22.3853C65.2559 22.5096 65.1106 22.6286 64.9626 22.7421ZM8.60932 49.3849L7.60998 46.3244L7.57699 46.2234L7.4733 46.2001L4.01228 45.4229L3.21283 40.2299L2.28126 41.0599L1.62653 42.7937L1.90706 43.1085L2.88091 40.5297L3.56425 44.9685L4.38484 45.8895L7.28774 46.5414L8.29534 49.6272C8.39866 49.5437 8.50335 49.4629 8.60932 49.3849ZM32.9543 63.2427L20.431 63.479L27.0781 56.8362L32.9543 63.2427ZM28.3491 51.2922L27.3327 56.281L29.0696 55.6721L28.3491 51.2922ZM27.4132 56.6488L29.1904 56.0257L32.5033 62.1982L27.4132 56.6488ZM40.0262 57.7006L40.0269 57.6519L34.6821 54.9046L33.6192 62.9762L40.0262 57.7006ZM34.8746 54.5834L40.1909 57.316L40.2236 57.2834L40.4178 50.1854L34.8746 54.5834ZM51.9452 45.6388L40.6079 56.9017L40.7989 49.9198L51.9452 45.6388ZM42.4042 46.1716L40.9661 49.4552L51.8035 45.2929L42.4042 46.1716ZM53.3539 44.2393L53.1036 44.488L48.4484 35.0411L59.5591 34.0054L53.3578 44.2563L53.3539 44.2393ZM43.2607 34.4496L47.8693 35.0317L42.5242 45.1298L43.2607 34.4496ZM42.8631 34.7832L42.1105 45.6987L36.0952 42.5755L42.8631 34.7832ZM42.5562 34.5667L36.063 42.0427L36.84 36.0131L42.5562 34.5667ZM42.9369 34.0849L37.4945 35.4621L43.943 30.4713L42.9369 34.0849ZM43.4124 33.7705L44.4028 30.2128L47.1444 31.0396L43.4124 33.7705ZM58.7299 33.7074L47.7839 31.2122L48.3187 34.6779L58.7299 33.7074ZM29.4901 19.4941L34.6135 14.7566L40.3139 24.0405L29.4904 19.5376L29.4901 19.4941ZM29.4927 19.9433L39.7408 24.2069L25.5725 23.6455L29.0271 19.9541L29.097 19.9578L29.4929 19.979L29.4927 19.9433ZM34.0873 34.683L25.5585 24.0189L40.4446 24.6087L34.0873 34.683ZM34.3903 34.903L40.0227 25.9774L36.5569 35.628L34.3903 34.903ZM44.0254 29.9349L37.0634 35.3232L40.8216 24.8584L44.0254 29.9349ZM44.3219 29.7045L41.2235 24.7951L47.6457 27.1109L44.3219 29.7045ZM46.1016 28.7897L47.7195 27.5273L47.6088 27.9839L46.1016 28.7897ZM47.7882 30.3851L47.9502 28.2138L51.4047 25.9016L47.7882 30.3851ZM47.8907 30.8533L52.326 25.3546L59.3938 33.4755L47.8907 30.8533ZM41.0345 19.8401L35.3782 15.288L40.6432 23.8627L41.0345 19.8401ZM47.4955 26.6596L41.1202 24.3606L43.782 21.7809L47.4955 26.6596ZM51.8571 25.0724L44.3739 21.9415L48.0853 26.8174L51.8571 25.0724ZM48.0653 27.6872L48.1878 27.1817L50.2367 26.2338L48.0653 27.6872ZM45.8612 18.2915L51.6086 24.5633L44.0706 21.4096L45.8612 18.2915ZM45.4013 18.3421L43.7413 21.2327L41.6304 19.8032L45.4013 18.3421ZM45.2618 17.9954L41.2634 19.5446L35.542 14.9401L45.2618 17.9954ZM43.5081 21.526L41.3858 20.0888L41.0104 23.9467L43.5081 21.526ZM47.5591 28.4342L47.3883 30.7228L44.7608 29.9304L47.5591 28.4342ZM34.3593 35.2867L36.466 35.9916L35.7497 41.5497L34.3593 35.2867ZM33.9624 35.2233L35.5396 42.3273L23.1242 37.3658L33.9624 35.2233ZM31.6641 35.2967L22.7551 37.0578L23.2549 35.6587L31.6641 35.2967ZM25.8989 31.8099L23.4899 35.2746L33.2535 34.8543L25.8989 31.8099ZM25.3965 24.4147L33.5059 34.5543L26.0077 31.4505L25.3965 24.4147ZM28.455 49.9989L23.3227 38.7298L30.9025 48.6437L28.455 49.9989ZM32.8193 49.6084L31.4495 48.6599L35.1184 43.8352L32.8193 49.6084ZM33.2483 49.5412L35.8341 43.0481L38.4157 47.2706L33.2483 49.5412ZM33.8244 49.6962L38.6298 47.5847L40.2332 49.6084L33.8244 49.6962ZM41.9278 46.3279L40.569 49.4305L38.9918 47.4399L41.9278 46.3279ZM38.7653 47.1261L41.8203 45.9691L36.3081 43.107L38.7653 47.1261ZM23.0286 37.73L35.5013 42.7144L31.1821 48.3941L23.0286 37.73ZM22.8749 35.6117L22.3581 37.0584L13.2715 33.3666L22.8749 35.6117ZM52.7613 44.8281L42.6042 45.7776L48.1549 35.2909L52.824 44.7658L52.7613 44.8281ZM34.6222 54.3067L40.07 49.9844L33.1668 50.079L34.6222 54.3067ZM31.1715 48.9219L32.3694 49.7514L29.2159 50.0047L31.1715 48.9219ZM29.3825 55.272L28.586 50.4302L32.5542 50.1114L29.3825 55.272ZM29.6704 55.5172L32.8581 50.3305L34.2869 54.4806L29.6704 55.5172ZM33.2625 62.8226L34.3114 54.8581L29.5604 55.9249L33.2625 62.8226ZM60.2179 33.8154L69.0923 28.3531L64.0661 37.3942L60.2179 33.8154ZM60.0705 34.1887L63.8008 37.6578L59.6713 40.0337L60.0705 34.1887ZM59.2806 40.2706L53.779 44.2819L59.6719 34.5409L59.2806 40.2706ZM47.9384 34.6638L47.4196 31.3013L43.5772 34.1129L47.9384 34.6638Z" fill="url(#paint1_linear)"/>
<defs>
<linearGradient id="paint0_linear" x1="13.2801" y1="56.9968" x2="60.1523" y2="15.2352" gradientUnits="userSpaceOnUse">
<stop stop-color="#D25778"/>
<stop offset="0.348958" stop-color="#EC585C"/>
<stop offset="0.692708" stop-color="#E7D155"/>
<stop offset="1" stop-color="#56A8C6"/>
</linearGradient>
<linearGradient id="paint1_linear" x1="13.8381" y1="56.4996" x2="59.5943" y2="15.7323" gradientUnits="userSpaceOnUse">
<stop stop-color="#D25778"/>
<stop offset="0.348958" stop-color="#EC585C"/>
<stop offset="0.692708" stop-color="#E7D155"/>
<stop offset="1" stop-color="#56A8C6"/>
</linearGradient>
</defs>
</svg>
