<?xml version="1.0" standalone="no"?>
<!DOCTYPE svg PUBLIC "-//W3C//DTD SVG 20010904//EN"
 "http://www.w3.org/TR/2001/REC-SVG-20010904/DTD/svg10.dtd">
<svg version="1.0" xmlns="http://www.w3.org/2000/svg"
 width="700.000000pt" height="700.000000pt" viewBox="0 0 700.000000 700.000000"
 preserveAspectRatio="xMidYMid meet">
<metadata>
Created by potrace 1.11, written by Peter Selinger 2001-2013
</metadata>
<g transform="translate(0.000000,700.000000) scale(0.100000,-0.100000)"
fill="#000000" stroke="none">
<path d="M4220 6908 c-28 -8 -413 -387 -2063 -2036 -1115 -1115 -2038 -2042
-2049 -2061 -27 -42 -29 -131 -6 -176 24 -46 572 -590 615 -610 62 -29 149
-16 226 33 182 119 399 166 597 130 443 -80 735 -516 640 -953 -19 -87 -69
-202 -139 -320 -17 -29 -32 -69 -34 -95 -8 -92 2 -106 306 -410 155 -156 291
-289 302 -296 40 -26 104 -33 157 -18 47 15 157 122 2082 2048 2178 2178 2070
2065 2059 2151 -10 76 -25 95 -310 380 -157 157 -298 292 -313 300 -65 33
-168 20 -235 -30 -51 -39 -167 -93 -251 -117 -112 -31 -296 -31 -409 1 -194
54 -348 164 -457 325 -179 262 -182 612 -10 883 21 32 43 71 50 86 16 37 15
120 -2 161 -16 38 -561 588 -607 612 -37 19 -102 24 -149 12z"/>
</g>
</svg>
